<?xml version="1.0" encoding="utf-8"?>
<svg xmlns="http://www.w3.org/2000/svg">
<symbol id="ema-icon-set_doi" viewBox="0 0 512 512">
<g id="EMA">
	<path d="M416,176v272c0,17.7-14.3,32-32,32H128c-17.7,0-32-14.3-32-32V64c0-17.7,14.3-32,32-32h144L416,176z M384,448V208H240V64
		H128v384H384z M272,77.3V176h98.7L272,77.3z"/>
</g>
<g id="Ebene_3">
</g>
<g id="outlined">
</g>

</symbol>
<symbol id="ema-icon-set_it-support" viewBox="0 0 512 512">
<g id="EMA">
	<path d="M448,112L448,112L448,112v224H64V112H448 M448,80H64c-17.7,0-32,14.3-32,32v224c0,17.7,14.3,32,32,32h176v32h-80
		c-8.7,0-16,7.1-16,15.8v0.3c0,8.7,7.3,15.8,16,15.8h192c8.7,0,16-7.1,16-15.8v-0.3c0-8.7-7.3-15.8-16-15.8h-80v-32h176
		c17.7,0,32-14.3,32-32V112C480,94.3,465.7,80,448,80L448,80z"/>
</g>
<g id="Ebene_3">
</g>
<g id="outlined">
</g>

</symbol>
<symbol id="ema-icon-set_sap" viewBox="0 0 512 512">
<g id="EMA">
	<path d="M288,114.3l148.9,116.9L288,348.8V304v-16c0-8.8-7.2-16-16-16h-16c-27.8,0-49.7,0-76.3,5.5c-26,5.4-47,12.3-64.3,21.1
		c-16.8,8.6-32,18.8-45,30.3c-6.6,5.8-12.3,11.3-17.4,16.8c0.1-0.3,0.1-0.6,0.2-1c2.3-12.8,7.1-27.7,14.5-44.3
		c7.1-16,16.1-30.5,26.7-43c37.4-43,87.5-63.1,162.5-65.2l15.6-0.4c8.7-0.2,15.6-7.3,15.6-16v-15.6V114.3 M270.8,64
		c-2.3,0-4.7,0.6-7.1,1.7c-5.6,2.7-7.7,7-7.7,13v81.6c-85.2,2.4-143,26.9-185.9,76.3c-12.7,14.9-23.3,31.8-31.7,50.9
		c-8.5,19-14.1,36.3-16.8,51.7c-2.7,15.5-4.4,31.4-5,47.7c-0.6,16.4-0.8,27.7-0.5,33.9c0.3,6.2,0.7,11.5,1.4,15.6
		c1.2,7.7,5.7,11.6,13.6,11.6H32c7.3,0,11.2-4.2,11.8-12.5c0.6-3,1.2-6.2,1.8-9.8c0.6-3.6,2.7-10,6.3-19.2c3.6-9.2,8.3-18,14.1-26.3
		c5.7-8.3,14.2-17.4,25.4-27.2c11.2-9.8,24-18.4,38.5-25.9c14.5-7.4,33.2-13.5,56.2-18.3c23-4.7,42-4.8,69.8-4.8v81.5
		c0,6,2.1,10.3,7.7,13c2.2,1.1,4.4,1.6,6.5,1.6c3.3,0,6.4-1.3,9.5-3.8l194.7-153.8c3.8-2.4,5.6-7,5.6-11.7c0-4.8-1.9-8.3-5.6-10.7
		L279.7,67.1C276.8,65,273.9,64,270.8,64L270.8,64z"/>
</g>
<g id="Ebene_3">
</g>
<g id="outlined">
</g>

</symbol>
<symbol id="ema-icon-set_arrow-down" viewBox="0 0 512 512">
<g id="EMA">
	<path d="M346.7,240.5c-1.8,1.8-6.7,6.6-14.9,14.4c-8.2,7.9-16.9,16.2-26.2,25c-11,10.5-23.2,21.9-36.4,34.2
		c-4,3.9-8.4,5.9-13.2,5.9c-4.9,0-9.3-2-13.2-5.9c-13.2-12.3-25.4-23.6-36.4-34.2c-9.3-8.8-18-17.1-26.2-25
		c-8.2-7.9-13.1-12.7-14.9-14.4c-3.5-3.5-5.3-8-5.3-13.5c0-5.5,1.8-10,5.3-13.5c3.5-3.5,7.6-5.4,12.3-5.6c4.6-0.2,9.2,1.6,13.6,5.6
		l64.9,61.7l64.9-61.7c4.4-3.9,8.9-5.8,13.6-5.6c4.6,0.2,8.7,2.1,12.2,5.6c3.5,3.5,5.3,8,5.3,13.5C352,232.5,350.2,237,346.7,240.5z
		"/>
</g>
<g id="Ebene_3">
</g>
<g id="outlined">
</g>

</symbol>
<symbol id="ema-icon-set_arrow-left" viewBox="0 0 512 512">
<g id="EMA">
	<path d="M284.9,160c5.5,0,10,1.8,13.5,5.3c3.5,3.5,5.4,7.6,5.6,12.2c0.2,4.6-1.6,9.2-5.6,13.6L236.7,256l61.7,64.9
		c3.9,4.4,5.8,8.9,5.6,13.6c-0.2,4.6-2.1,8.7-5.6,12.3c-3.5,3.5-8,5.3-13.5,5.3c-5.5,0-10-1.8-13.5-5.3c-1.8-1.8-6.6-6.7-14.4-14.9
		c-7.9-8.2-16.2-16.9-25-26.2c-10.5-11-21.9-23.2-34.2-36.4c-3.9-4-5.9-8.4-5.9-13.2c0-4.8,2-9.3,5.9-13.2
		c12.3-13.2,23.6-25.4,34.2-36.4c8.8-9.3,17.1-18,25-26.2c7.9-8.2,12.7-13.1,14.4-14.9C275,161.8,279.5,160,284.9,160z"/>
</g>
<g id="Ebene_3">
</g>
<g id="outlined">
</g>

</symbol>
<symbol id="ema-icon-set_arrow-right" viewBox="0 0 512 512">
<g id="EMA">
	<path d="M224.5,165.3c1.8,1.8,6.6,6.7,14.4,14.9c7.9,8.2,16.2,16.9,25,26.2c10.5,11,21.9,23.2,34.2,36.4c3.9,4,5.9,8.4,5.9,13.2
		c0,4.9-2,9.3-5.9,13.2c-12.3,13.2-23.6,25.4-34.2,36.4c-8.8,9.3-17.1,18-25,26.2c-7.9,8.2-12.7,13.1-14.4,14.9
		c-3.5,3.5-8,5.3-13.5,5.3c-5.5,0-10-1.8-13.5-5.3c-3.5-3.5-5.4-7.6-5.6-12.3c-0.2-4.6,1.6-9.2,5.6-13.6l61.7-64.9l-61.7-64.9
		c-3.9-4.4-5.8-8.9-5.6-13.6c0.2-4.6,2.1-8.7,5.6-12.2c3.5-3.5,8-5.3,13.5-5.3C216.5,160,221,161.8,224.5,165.3z"/>
</g>
<g id="Ebene_3">
</g>
<g id="outlined">
</g>

</symbol>
<symbol id="ema-icon-set_arrow-up" viewBox="0 0 512 512">
<g id="EMA">
	<path d="M352,300.9c0,5.5-1.8,10-5.3,13.5c-3.5,3.5-7.6,5.4-12.2,5.6c-4.6,0.2-9.2-1.6-13.6-5.6L256,252.7l-64.9,61.7
		c-4.4,3.9-8.9,5.8-13.6,5.6c-4.6-0.2-8.7-2.1-12.3-5.6c-3.5-3.5-5.3-8-5.3-13.5c0-5.5,1.8-10,5.3-13.5c1.8-1.8,6.7-6.6,14.9-14.4
		c8.2-7.9,16.9-16.2,26.2-25c11-10.5,23.2-21.9,36.4-34.2c4-3.9,8.4-5.9,13.2-5.9c4.8,0,9.3,2,13.2,5.9
		c13.2,12.3,25.4,23.6,36.4,34.2c9.3,8.8,18,17.1,26.2,25c8.2,7.9,13.1,12.7,14.9,14.4C350.2,291,352,295.5,352,300.9z"/>
</g>
<g id="Ebene_3">
</g>
<g id="outlined">
</g>

</symbol>
<symbol id="ema-icon-set_booking" viewBox="0 0 512 512">
<g id="EMA">
	<path d="M470.4,41.7c4.1,4.1,7,10.5,8.8,19.3s0.7,19.3-3.1,31.6c-3.8,12.3-10.9,23.4-21.4,33.4l-91.9,92.2
		c0.6,14.6,1.9,37.6,3.9,69c2,31.3,3.8,58.7,5.3,82.1c1.5,23.4,2.2,35.7,2.2,36.9c0,8.8-2.8,16.7-8.3,23.7c-5.5,7-15,17.6-28.4,31.6
		c-5.3,4.7-10.8,7-16.6,7c-0.6,0-1.2,0-1.8,0c-6.4-0.6-11.1-4.4-14-11.4c-6.4-17-22.5-60.9-48.1-131.8l-57.8,54.5
		c0,5.9,0,17.6,0,35.1c0,17.6,0,27.5,0,29.9c0,8.8-4.1,17.9-12.3,27.2c-5.3,5.3-10.5,7.9-15.8,7.9h-0.9c-5.3,0-9.3-2.3-12.3-7
		c-0.6-0.6-7.4-11.7-20.6-33.4s-21.2-34.8-24.1-39.5c-43.2-25.8-68.3-41.6-75.3-47.4c-4.1-2.9-6.1-7-6.1-12.3c0.6-5.3,2.9-10,7-14.1
		l0.9-0.9c10.5-8.8,19.5-13.2,27.1-13.2c0.6,0,1.8,0,3.5,0c2.9,0,10.9,0,24.1,0s22.9,0,29.3,0c3.5,0,6.4,0,8.8,0l55.1-57.1
		c-70-25.8-114.4-42.2-133-49.2c-7-2.9-10.8-7.6-11.4-14.1c-0.6-6.4,1.8-12.3,7-17.6l32.4-29c6.4-5.9,13.4-8.8,21-8.8
		c0.6,0,1.2,0,1.8,0c1.2,0,13.4,0.9,36.8,2.6c23.3,1.8,50.9,3.7,82.7,5.7c31.8,2.1,54.7,3.4,68.7,4l91.9-92.2
		C401.9,40.2,420.2,32,440.7,32C454.1,32,464,35.2,470.4,41.7z M405.7,76.8L313.8,169l-9.6,8.8l-12.3-0.9c-17.5-1.2-54-3.5-109.4-7
		c-50.2-3.5-76.1-5.3-77.9-5.3h-0.9c-1.2,0-2.3,0.6-3.5,1.8c-4.1,3.5-11.1,9.7-21,18.4c46.7,17.6,86,32.2,118.1,43.9l41.1,15.8
		L207,275.3l-54.3,57.1l-8.8,7.9h-10.5c-2.9,0-6.1,0-9.6,0c-5.8,0-16.9,0-33.3,0c-9.9,0-16.6,0-20.1,0h-0.9l-0.9-0.9
		c19.3,12.3,38.8,24.6,58.6,36.9l6.1,3.5l3.5,5.3c2.9,5.3,13.7,22.8,32.4,52.7c0.6,0.6,1.8,2.6,3.5,6.1l-0.9-0.9h-0.9
		c0-3.5,0-11.7,0-24.6c0-20.5,0-33.4,0-38.7l0.9-11.4l7.9-7.9l56.9-55.3l31.5-31.6l14.9,42.2c11.7,31.6,26,70.6,42.9,116.8
		c8.8-9.4,14.9-16.4,18.4-21.1c1.2-1.2,1.8-2.6,1.8-4.4c0-1.8-1.5-26.1-4.4-72.9c-3.5-53.9-5.8-91.9-7-114.2l-0.9-12.3l8.8-8.8
		l92.8-93.1c8.2-8.2,13.3-17.3,15.3-27.2c2-10,1.9-15.5-0.4-16.7c-2.3-1.2-5.5-1.8-9.6-1.8C428.4,60.1,416.7,65.7,405.7,76.8z"/>
</g>
<g id="Ebene_3">
</g>
<g id="outlined">
</g>

</symbol>
<symbol id="ema-icon-set_calendar-datepicker" viewBox="0 0 512 512">
<g id="EMA">
	<path d="M352,160c17.7,0,32,14.3,32,32v163.6c0,7.6-2.7,14.2-8.2,19.9c-5.5,5.7-12.2,8.5-20.2,8.5H156.4c-7.6,0-14.2-2.8-19.9-8.5
		c-5.7-5.7-8.5-12.3-8.5-19.9V192c0-17.7,14.3-32,32-32h16v32h48v-32h64v32h48v-32H352z M352,240H160v112h192V240z M212,180h-24v-52
		h24V180z M324,180h-24v-52h24V180z"/>
</g>
<g id="Ebene_3">
</g>
<g id="outlined">
</g>

</symbol>
<symbol id="ema-icon-set_close" viewBox="0 0 512 512">
<g id="EMA">
	<path d="M334.2,195.2c2.4,2.4,2.4,6.3,0,8.7l-47.8,47.8c-2.4,2.4-2.4,6.3,0,8.7l47.8,47.8c2.4,2.4,2.4,6.3,0,8.7l-17.4,17.4
		c-2.4,2.4-6.3,2.4-8.7,0l-47.8-47.8c-2.4-2.4-6.3-2.4-8.7,0l-47.8,47.8c-2.4,2.4-6.3,2.4-8.7,0l-17.4-17.4c-2.4-2.4-2.4-6.3,0-8.7
		l47.8-47.8c2.4-2.4,2.4-6.3,0-8.7l-47.8-47.8c-2.4-2.4-2.4-6.3,0-8.7l17.4-17.4c2.4-2.4,6.3-2.4,8.7,0l47.7,47.8
		c2.4,2.4,6.3,2.4,8.7,0l47.8-47.8c2.4-2.4,6.3-2.4,8.7,0L334.2,195.2z"/>
</g>
<g id="Ebene_3">
</g>
<g id="outlined">
</g>

</symbol>
<symbol id="ema-icon-set_comment" viewBox="0 0 512 512">
<g id="EMA">
	<path d="M352,128H144c-17.7,0-32,14.3-32,32v128c0,17.7,14.3,32,32,32h80l64,48v-48h64c17.7,0,32-14.3,32-32V160
		C384,142.3,369.7,128,352,128z"/>
</g>
<g id="Ebene_3">
</g>
<g id="outlined">
</g>

</symbol>
<symbol id="ema-icon-set_contact-point" viewBox="0 0 512 512">
<g id="EMA">
	<path d="M141.8,256c-6.4,0-17.2-5.3-18.1-6.2l-40.3-28.5c-2.2-1.4-3.4-3.2-3.4-5.6c0-2.3,1.1-4.2,3.4-5.6l40.3-28.5
		c5-3.5,9.7-5.7,13.4-5.7c1.8,0,70.9,0,70.9,0v-58c0-3.3,2.7-6,6-6h20c3.3,0,6,2.7,6,6v291.3c0,4.5-2.5,6.7-7.4,6.7h-17.1
		c-5,0-7.4-2.2-7.4-6.7V256L141.8,256z M412.7,178.1c2.2,1.4,3.3,3.3,3.3,5.6c0,2.3-1.1,4.2-3.3,5.6L373,217.8
		c-1.3,0.9-2.7,1.7-4,2.4s-2.9,1.3-4.7,1.7c-3.6,1.4-6.7,2.1-9.4,2.1h-85.4L256,144h98.9c1.3,0,2.8,0,4.4,0c1.6,0,3.2,0.5,5,1.4
		c2.2,0.9,5.1,2.3,8.7,4.2L412.7,178.1z"/>
</g>
<g id="Ebene_3">
</g>
<g id="outlined">
</g>

</symbol>
<symbol id="ema-icon-set_contact" viewBox="0 0 512 512">
<g id="EMA">
	<g>
		<path d="M247.8,128.5c42.6-4.8,72.3,23,68.4,70.6c-1.1,13.3-6.7,29.1-13.4,40.8c-6.4,11.1-20.7,21.9-16.9,36
			c2.4,8.9,22.4,14.2,29.6,17.3c18.4,7.9,44.3,19.8,50.8,38.8c1.7,4.9,2.9,16.8,0,24.2c-10.3,26.3-74.4,27.7-110,27.7
			c-19.7,0-43.6-0.3-64.9-4.2c-24.7-4.5-54.7-14.2-45.8-46.4c4-14.5,21.8-25.1,38.1-33.9c4.7-2.6,14.7-8.1,24-11.8
			c7.8-3.1,18.7-5.9,19.7-15.9c0.8-8.5-4.6-13-9.9-20.1c-11.9-16.1-23.2-38.1-21.2-67.8C198.3,154.7,216.8,132,247.8,128.5z"/>
	</g>
</g>
<g id="Ebene_3">
</g>
<g id="outlined">
</g>

</symbol>
<symbol id="ema-icon-set_curriculum-vitae" viewBox="0 0 512 512">
<g id="EMA">
	<path d="M320,208H192v-32h128V208z M320,336H192v-32h128V336z M192,240h128v32H192V240z M352,128L352,128L352,128v256H160V128H352
		 M352,96H160c-17.7,0-32,14.3-32,32v256c0,17.7,14.3,32,32,32h192c17.7,0,32-14.3,32-32V128C384,110.3,369.7,96,352,96L352,96z"/>
</g>
<g id="Ebene_3">
</g>
<g id="outlined">
</g>

</symbol>
<symbol id="ema-icon-set_deadlines" viewBox="0 0 512 512">
<g id="EMA">
	<path d="M248,96c21.1,0,40.9,4,59.2,11.9c18.3,7.9,34.4,18.8,48.2,32.7s24.8,30,32.7,48.2c7.9,18.3,11.9,38,11.9,59.1
		s-4,40.9-11.9,59.1c-7.9,18.3-18.8,34.4-32.7,48.2s-30,24.8-48.2,32.7c-18.3,7.9-38,11.9-59.2,11.9s-40.9-4-59.1-11.9
		c-18.3-7.9-34.4-18.8-48.2-32.7c-13.9-13.9-24.8-29.9-32.7-48.2C100,288.9,96,269.1,96,248s4-40.9,11.9-59.1
		c7.9-18.3,18.8-34.4,32.7-48.2c13.9-13.9,29.9-24.8,48.2-32.7C207.1,100,226.9,96,248,96z M248,367c16.3,0,31.7-3.1,46.3-9.3
		c14.5-6.2,27.2-14.7,38-25.5c10.8-10.8,19.3-23.5,25.5-38c6.2-14.5,9.3-30,9.3-46.3c0-16.3-3.1-31.7-9.3-46.3
		c-6.2-14.5-14.7-27.2-25.5-38c-10.8-10.8-23.5-19.3-38-25.5c-14.6-6.1-30-9.3-46.3-9.3c-16.3,0-31.7,3.1-46.3,9.3
		c-14.5,6.2-27.2,14.7-38,25.5c-10.8,10.8-19.3,23.5-25.4,38c-6.2,14.5-9.3,30-9.3,46.3c0,16.3,3.1,31.7,9.3,46.3
		c6.2,14.5,14.6,27.2,25.4,38c10.8,10.8,23.5,19.3,38,25.5C216.3,363.9,231.7,367,248,367z M262,242.8l45.6,45.2L292,304l-52-52v-92
		h22V242.8z"/>
</g>
<g id="Ebene_3">
</g>
<g id="outlined">
</g>

</symbol>
<symbol id="ema-icon-set_declaration" viewBox="0 0 512 512">
<g id="EMA">
	<path d="M371.7,179.7l-71.4-71.4c-7.9-7.9-18.6-12.3-29.7-12.3H160c-17.7,0-32,14.3-32,32v256c0,17.7,14.3,32,32,32h192
		c17.7,0,32-14.3,32-32V209.4C384,198.3,379.6,187.6,371.7,179.7z M304,157.3l18.6,18.7H304V157.3z M352,384H160V128h112v80h80V384z
		"/>
</g>
<g id="Ebene_3">
</g>
<g id="outlined">
</g>

</symbol>
<symbol id="ema-icon-set_desk" viewBox="0 0 512 512">
<g id="EMA">
	<g>
		<path d="M256,80c15.5,0,30,2.9,43.5,8.8c13.4,5.9,25.2,13.8,35.4,23.8c10.1,10,18.2,21.6,24.2,34.8c5.9,13.2,9,27.4,9,42.7
			c0,26.4-6,53.7-17.9,81.8c-12,28.2-24.8,54.3-38.5,78.3c-16.1,28.2-34.6,55.4-55.6,81.8c-21.5-26.4-40.3-53.7-56.4-81.8
			c-13.8-24-26.5-50.2-38.1-78.3C149.8,243.7,144,216.4,144,190c0-15.3,3-29.5,9-42.7c6-13.2,14-24.8,24.2-34.8
			c10.1-10,21.9-17.9,35.4-23.8C226,82.9,240.5,80,256,80z M255.5,256c17.7,0,32.9-6.3,45.5-19c12.6-12.6,19-27.8,19-45.5
			c0-17.7-6.3-32.7-19-45c-12.7-12.3-27.8-18.5-45.5-18.5c-17.7,0-32.7,6.2-45,18.5c-12.3,12.3-18.5,27.3-18.5,45
			c0,17.7,6.1,32.9,18.5,45.5C222.8,249.7,237.8,256,255.5,256z"/>
	</g>
</g>
<g id="Ebene_3">
</g>
<g id="outlined">
</g>

</symbol>
<symbol id="ema-icon-set_discussion-board" viewBox="0 0 512 512">
<g id="EMA">
	<g>
		<path d="M224,288h96l64,48v-48h16c17.7,0,32-14.3,32-32V144c0-17.7-14.3-32-32-32H224c-17.7,0-32,14.3-32,32v112
			C192,273.7,206.3,288,224,288z"/>
		<path d="M176,272v-80h-64c-17.7,0-32,14.3-32,32v112c0,17.7,14.3,32,32,32h16v48l64-48h96c17.7,0,32-14.3,32-32v-32H208
			C190.3,304,176,289.7,176,272z"/>
	</g>
</g>
<g id="Ebene_3">
</g>
<g id="outlined">
</g>

</symbol>
<symbol id="ema-icon-set_download" viewBox="0 0 512 512">
<g id="EMA">
	<path d="M394.6,272.7c2.2,4.5,3.8,9.8,4.7,15.9c0.9,6.1,0.9,11.6,0,16.5l-11.5,62.1c-0.9,4.9-3.2,9-6.8,12.1
		c-3.6,3.1-7.9,4.7-12.8,4.7H127.8c-5,0-9.2-1.6-12.8-4.7c-3.6-3.2-5.9-7.2-6.8-12.1l-11.5-62.1c-0.9-4.9-0.9-10.4,0-16.5
		c0.9-6.1,2.5-11.4,4.7-15.9l53.4-129.2c2.2-4.5,5.6-8.2,10.1-11.1c4.5-2.9,9.2-4.4,14.2-4.4h38.5l-9.6,64h-48l88,80l88-80h-48
		l-9.4-64h38.3c4.9,0,9.8,1.5,14.5,4.4c4.7,2.9,8.2,6.7,10.5,11.1L394.6,272.7z M365,322.3c0.9-5-1.5-9.2-4.4-12.9
		c-2.9-3.6-6.9-5.4-11.8-5.4H147.2c-5,0-8.9,1.8-11.8,5.4c-2.9,3.6-5.3,7.9-4.4,12.9l2,12c0.9,5,2.4,9.2,6,12.6
		c3.6,3.4,12.5,5.1,17,5.1h184c4.9,0,14.4-1.7,18-5.1c3.6-3.4,5.1-7.6,6-12.6L365,322.3z"/>
</g>
<g id="Ebene_3">
</g>
<g id="outlined">
</g>

</symbol>
<symbol id="ema-icon-set_e-mail" viewBox="0 0 512 512">
<g id="EMA">
	<path d="M363,230.2c2.6-1.3,4.1-1.5,4.5-0.5c0.3,1,0.5,2,0.5,3v91.4c0,2.7-1.4,5.3-4.2,8c-2.8,2.7-5.6,4-8.2,4H156.4
		c-2.7,0-5.4-1.3-8.2-4s-4.2-5.3-4.2-8v-91.4c0-1,0.2-2,0.5-3c0.3-1,1.8-0.8,4.5,0.5c1,0.7,4.1,2.2,9.2,4.7
		c5.1,2.5,11.1,5.5,17.9,9.2c6.8,3.7,14.1,7.5,21.9,11.4c7.8,4,15,7.7,21.6,11.2c6.6,3.5,12.3,6.4,16.9,8.9c4.6,2.5,7.3,3.9,8,4.2
		c2.3,1.3,4.3,2.1,6,2.2c1.7,0.2,3.5,0.3,5.5,0.3c2,0,3.8-0.1,5.5-0.3c1.7-0.2,3.6-0.9,6-2.2c0.6-0.3,3.3-1.7,8-4.2
		c4.7-2.5,10.4-5.5,17.2-8.9c6.8-3.5,14.1-7.2,21.9-11.2c7.8-4,15.1-7.8,21.9-11.4c6.8-3.6,12.7-6.7,17.7-9.2
		C359,232.5,362,230.9,363,230.2z M151.5,205.1c-1.7-1-3.1-2.2-4.2-3.6c-1.2-1.5-2-2.9-2.5-4.4c-0.5-1.5-0.3-2.7,0.5-3.6
		c0.8-1,2.7-1.5,5.7-1.5h210.6c2.6,0,4.4,0.5,5.2,1.5c0.8,1,1.1,2.2,0.7,3.6c-0.3,1.5-1.2,2.9-2.5,4.4c-1.3,1.5-2.8,2.7-4.5,3.6
		c-1,0.6-3.9,2.2-8.7,4.6c-4.8,2.4-10.6,5.4-17.4,9c-6.8,3.6-14,7.3-21.6,11.2c-7.6,3.9-14.7,7.6-21.2,11.1
		c-6.5,3.6-12,6.5-16.7,8.7c-4.7,2.3-7.1,3.6-7.5,3.9c-1.7,1-3.5,1.6-5.5,1.9c-2,0.3-4,0.5-6,0.5c-4.7,0-8.5-0.8-11.5-2.4
		c-0.7-0.3-3.2-1.6-7.7-3.9c-4.5-2.3-9.9-5.2-16.4-8.7c-6.5-3.6-13.5-7.3-21.2-11.1c-7.6-3.9-14.9-7.6-21.6-11.2
		c-6.8-3.6-12.6-6.5-17.4-9C155.4,207.3,152.5,205.7,151.5,205.1z"/>
</g>
<g id="Ebene_3">
</g>
<g id="outlined">
</g>

</symbol>
<symbol id="ema-icon-set_excel" viewBox="0 0 512 512">
<g id="EMA">
	<path d="M387.7,147.7l-71.4-71.4c-7.9-7.9-18.6-12.3-29.7-12.3H96c-17.7,0-32,14.3-32,32v320c0,17.7,14.3,32,32,32h272
		c17.7,0,32-14.3,32-32V177.4C400,166.3,395.6,155.6,387.7,147.7z M376.4,159c0.3,0.3,0.6,0.7,0.9,1H304V86.7c0,0.3,0.7,0.6,1,0.9
		L376.4,159z M384,416c0,8.8-7.2,16-16,16H96c-8.8,0-16-7.2-16-16V96c-0.1-9.7,7.1-16.6,16-16h190.6c0.5,0,1.4,0,1.4,0v96h96
		c0,0.5,0,0.9,0,1.4V416z"/>
	<polygon points="267.1,400 320,400 250.4,295.2 308.3,208 255.4,208 224,255.3 192.6,208 139.7,208 197.5,295.2 128,400 178.5,400 
		180.9,400 201.5,369 224,335 	"/>
</g>
<g id="Ebene_3">
</g>
<g id="outlined">
</g>

</symbol>
<symbol id="ema-icon-set_facilities" viewBox="0 0 512 512">
<g id="EMA">
	<path d="M256.4,72.3L400,224v224h-64V320v-32h-32h-96h-32v32v128h-64V224L256.4,72.3 M80,256l0,208c0,8.9,7.1,16,16,16h96
		c8.8,0,16-7.2,16-16V320h96v144c0,8.8,7.2,16,16,16h96c8.8,0,16-7.2,16-16V256l18.1,19.4c6.1,6.5,16.3,6.7,22.7,0.5l2.3-2.2
		c6.4-6.1,6.5-16.3,0.4-22.6L266.4,36.4c-2.9-2.9-6.2-4.4-10-4.4l0,0c-3.8,0-7.1,1.5-10,4.4L36.5,252c-6.2,6.4-6,16.6,0.5,22.8
		l2.6,2.4c6.4,6.1,16.6,5.8,22.7-0.7L80,256z"/>
</g>
<g id="Ebene_3">
</g>
<g id="outlined">
</g>

</symbol>
<symbol id="ema-icon-set_faq" viewBox="0 0 512 512">
<g id="EMA">
	<path d="M323.5,132.6c19,14.2,28.5,35,28.5,62.5c0,8.1-1.3,15.7-4,22.6c-2.6,7-6,13.4-9.9,19.3c-2.2,3.6-6,7.7-11.3,12.2
		c-5.3,4.5-11.3,9.5-17.9,14.9l-15.2,10.1c-3.5,3.2-6.9,6.4-9.9,9.8c-3.1,3.4-5.1,6.9-6,10.5c-1.3,3.6-2.2,8.5-2.6,14.9
		c0,0.9-0.3,1.9-1,3c-0.7,1.1-2.1,1.7-4.3,1.7h-42.4c-2.2,0-3.6-0.4-4.3-1.4c-0.7-0.9-1-1.8-1-2.7c0.4-9.9,1.1-18.2,2-25
		c0.9-6.8,3.3-12.4,7.3-16.9c3.1-4.1,7-8.1,11.6-12.2c4.6-4.1,9.4-7.9,14.2-11.5c5.3-4.1,10.8-7.9,16.6-11.5
		c4.8-3.6,8.6-7.4,11.3-11.5c2.2-3.6,4.3-7.3,6.3-11.1c2-3.8,3-8,3-12.5c0-8.5-2.9-17.3-8.6-26.3c-6.2-8.1-16.3-12.2-30.5-12.2
		c-15,0-25.4,4.9-31.1,14.6c-6.2,9.3-9.3,19.5-9.3,30.6h-55c1.3-36.5,13.9-62.6,37.7-78.4c15-9.5,33.3-14.2,54.9-14.2
		C281.4,112,305,118.9,323.5,132.6z M251.9,347.7c9.9,0,18.1,3.3,24.7,9.8c6.5,6.5,9.6,15,9.1,25.3c-0.5,10.4-4.1,18.6-10.8,24.6
		c-6.8,6.1-15.1,8.9-25,8.4c-9.9,0-18.1-3.3-24.7-9.8c-6.5-6.5-9.6-15-9.1-25.3c0.4-10.3,4.1-18.6,10.8-24.7
		C233.7,350.1,242,347.3,251.9,347.7z"/>
</g>
<g id="Ebene_3">
</g>
<g id="outlined">
</g>

</symbol>
<symbol id="ema-icon-set_favourites" viewBox="0 0 512 512">
<g id="EMA">
	<polygon points="144,400 144,112 368,112 368,400 256,336 	"/>
</g>
<g id="Ebene_3">
</g>
<g id="outlined">
</g>

</symbol>
<symbol id="ema-icon-set_featured-topics" viewBox="0 0 512 512">
<g id="EMA">
	<path d="M390.8,166.4c3.1-1.4,5.7-1.2,7.8,0.3c2,1.6,1.9,3.7-0.3,6.4c-19.8,28.9-36.4,50.9-49.9,66c-13.5,15.1-25.1,25.7-34.8,31.8
		c-9.7,6.1-17.8,8.6-24.3,7.5s-12.6-3.6-18.2-7.5c-5.6-3.8-11.4-8.1-17.2-12.9c-5.8-4.7-12.8-7.8-20.9-9.1
		c-8.1-1.4-17.9,0.1-29.3,4.4c-11.5,4.3-25.5,13.4-42.2,27.4L192,400h-32L96,160l31-16c18.9-13.5,34.4-21.9,46.5-26.7
		c12.1-4.7,22.4-6.3,30.7-4.7c8.3,1.6,15.4,5.3,21.3,11.2c5.8,5.9,11.7,12.4,17.5,19.6c5.8,7.2,12.3,14.3,19.2,21.3
		c7,7,16,12.2,27,15.6c11,3.4,24.7,4.3,41.2,2.7C346.8,181.4,367,175.9,390.8,166.4z"/>
</g>
<g id="Ebene_3">
</g>
<g id="outlined">
</g>

</symbol>
<symbol id="ema-icon-set_group" viewBox="0 0 512 512">
<g id="EMA">
	<g>
		<path d="M212.8,128.6c47.9-5.4,81.3,25.9,76.9,79.4c-1.2,14.9-7.5,32.8-15.1,46c-7.2,12.5-23.3,24.6-19,40.5
			c2.7,10,25.2,16,33.3,19.5c20.7,8.9,49.8,22.3,57.1,43.6c1.9,5.5,3.3,18.9,0,27.3c-11.6,29.6-83.7,31.2-123.7,31.2
			c-22.2,0-49.1-0.3-73-4.7c-27.8-5.1-61.5-16-51.5-52.2c4.5-16.3,24.6-28.2,42.8-38.2c5.3-2.9,16.5-9.1,27-13.2
			c8.8-3.5,21.1-6.6,22.2-17.9c0.9-9.5-5.2-14.7-11.1-22.6c-13.4-18.1-26.1-42.9-23.8-76.3C157.1,158.1,177.9,132.5,212.8,128.6z
			 M414,325.6c-7.3-21.3-36.4-34.7-57.1-43.6c-8.1-3.5-30.6-9.4-33.3-19.5c-4.3-15.9,11.9-28,19-40.5c7.6-13.2,13.8-31,15.1-46
			c4.4-53.5-29-84.9-76.9-79.4c-15.5,1.7-28.1,7.7-37.7,16.7c16.6,3.2,31.3,10.9,42.2,22.7c16.4,17.8,23.9,42.9,21.5,72.6
			c-1.3,16.3-7.8,36.4-16.8,52.5c-2.6,4.5-5.7,8.6-8.7,12.6c-5.1,6.7-8.7,11.6-8.7,15.2c3.5,2.8,13.3,6.4,17.2,7.8
			c2.8,1,5.2,1.9,7,2.7c19.2,8.4,55.1,24.2,64.7,53.1c2,6,3.4,16.7,2.3,26.9c24.1-4.1,44.6-11.9,50.3-26.5
			C417.3,344.5,415.9,331.1,414,325.6z"/>
	</g>
</g>
<g id="Ebene_3">
</g>
<g id="outlined">
</g>

</symbol>
<symbol id="ema-icon-set_home" viewBox="0 0 512 512">
<g id="EMA">
	<path d="M336,272v70.5c0,2.5-0.3,4.8-0.9,6.7c-0.6,1.9-1.9,2.9-5.7,2.9H272v-64h-32v64h-54c-4.8,0-7.6-0.9-8.6-2.9
		c-1-1.9-1.4-4.1-1.4-6.7V272h-25c-3.7,0-5.9-0.9-6.7-2.7c-0.8-1.8,0.1-4,2.7-6.6l99.5-98.7c2.7-2.6,5.8-3.9,9.5-3.9
		c3.6,0,6.8,1.3,9.4,3.9l99.5,98.7c2.7,2.6,3.6,4.8,2.7,6.6c-0.8,1.8-3.1,2.7-6.7,2.7H336z"/>
</g>
<g id="Ebene_3">
</g>
<g id="outlined">
</g>

</symbol>
<symbol id="ema-icon-set_info" viewBox="0 0 512 512">
<g id="EMA">
	<path d="M480,256c0,61.8-21.9,114.6-65.6,158.4S317.8,480,256,480c-61.8,0-114.6-21.9-158.4-65.6S32,317.8,32,256
		c0-61.8,21.9-114.6,65.6-158.4S194.2,32,256,32c61.8,0,114.6,21.9,158.4,65.6S480,194.2,480,256z M451,255.6
		c0-53.9-19-99.7-57-137.7C356,80,310,61,256,61s-100,19-138,56.9c-38,37.9-57,83.8-57,137.7s19,99.9,57,138.1
		c38,38.2,84,57.3,138,57.3s100-19.1,138-57.3C432,355.5,451,309.4,451,255.6z M294.1,359.9c2.6,2.6,3.9,6,3.9,10.1
		c0,4.1-1.3,7.4-3.9,10.1s-6,3.9-10.1,3.9h-56c-4.1,0-7.4-1.3-10.1-3.9s-3.9-6-3.9-10.1c0-4.1,1.3-7.4,3.9-10.1s6-3.9,10.1-3.9h14
		V244h-14c-4.1,0-7.4-1.3-10.1-3.9s-3.9-6-3.9-10.1c0-4.1,1.3-7.4,3.9-10.1s6-3.9,10.1-3.9h28c4.1,0,7.4,1.3,10.1,3.9
		s3.9,6,3.9,10.1v0.9V356h14C288.1,356,291.4,357.3,294.1,359.9z M228,156c0-7.6,2.8-14.1,8.3-19.7c5.5-5.5,12.1-8.3,19.7-8.3
		c7.6,0,14.1,2.8,19.7,8.3c5.5,5.5,8.3,12.1,8.3,19.7c0,7.6-2.8,14.2-8.3,19.7c-5.5,5.5-12.1,8.3-19.7,8.3c-7.6,0-14.2-2.8-19.7-8.3
		C230.8,170.2,228,163.6,228,156z"/>
</g>
<g id="Ebene_3">
</g>
<g id="outlined">
</g>

</symbol>
<symbol id="ema-icon-set_link-ext" viewBox="0 0 512 512">
<g id="EMA">
	<path d="M320,272v80H160V192h80v16h-64v128h128v-64H320z M256,160v16h68.7L216.2,284.5l11.3,11.3L336,187.3V256h16v-96H256z"/>
</g>
<g id="Ebene_3">
</g>
<g id="outlined">
</g>

</symbol>
<symbol id="ema-icon-set_list-view" viewBox="0 0 512 512">
<g id="EMA">
	<path d="M120.7,128c6.8,0,12.5,2.3,16.8,6.7c4.3,4.5,6.5,10.2,6.5,17.3c0,6.4-2.2,12.1-6.5,16.8c-4.4,4.8-10,7.2-16.8,7.2h-1.3
		c-6.8,0-12.5-2.4-16.8-7.2C98.2,164,96,158.4,96,152c0-7,2.2-12.8,6.5-17.3c4.4-4.4,10-6.7,16.8-6.7H120.7z M120.7,224
		c6.8,0,12.5,2.3,16.8,6.7c4.3,4.5,6.5,10.2,6.5,17.3c0,6.4-2.2,12.1-6.5,16.8c-4.4,4.8-10,7.2-16.8,7.2h-1.3
		c-6.8,0-12.5-2.4-16.8-7.2C98.2,260,96,254.4,96,248c0-7,2.2-12.8,6.5-17.3c4.4-4.4,10-6.7,16.8-6.7H120.7z M120.7,320
		c6.8,0,12.5,2.3,16.8,6.7c4.3,4.5,6.5,10.2,6.5,17.3c0,6.4-2.2,12.1-6.5,16.8c-4.4,4.8-10,7.2-16.8,7.2h-1.3
		c-6.8,0-12.5-2.4-16.8-7.2C98.2,356,96,350.4,96,344c0-7,2.2-12.8,6.5-17.3c4.4-4.4,10-6.7,16.8-6.7H120.7z M376.2,176H199.8
		c-13.1,0-23.8-10.6-23.8-23.8v-0.5c0-13.1,10.6-23.8,23.8-23.8h176.5c13.1,0,23.8,10.6,23.8,23.8v0.5
		C400,165.4,389.4,176,376.2,176z M376.2,272H199.8c-13.1,0-23.8-10.6-23.8-23.8v-0.5c0-13.1,10.6-23.8,23.8-23.8h176.5
		c13.1,0,23.8,10.6,23.8,23.8v0.5C400,261.4,389.4,272,376.2,272z M376.2,368H199.8c-13.1,0-23.8-10.6-23.8-23.8v-0.5
		c0-13.1,10.6-23.8,23.8-23.8h176.5c13.1,0,23.8,10.6,23.8,23.8v0.5C400,357.4,389.4,368,376.2,368z"/>
</g>
<g id="Ebene_3">
</g>
<g id="outlined">
</g>

</symbol>
<symbol id="ema-icon-set_minus" viewBox="0 0 512 512">
<g id="EMA">
	<path d="M345.6,272H166.4c-3.5,0-6.4-2.9-6.4-6.4v-19.2c0-3.5,2.9-6.4,6.4-6.4h179.2c3.5,0,6.4,2.9,6.4,6.4v19.2
		C352,269.1,349.1,272,345.6,272z"/>
</g>
<g id="Ebene_3">
</g>
<g id="outlined">
</g>

</symbol>
<symbol id="ema-icon-set_mobile-phone" viewBox="0 0 512 512">
<g id="EMA">
	<path d="M336,64H176c-17.7,0-32,14.3-32,32v320c0,17.7,14.3,32,32,32h160c17.7,0,32-14.3,32-32V96C368,78.3,353.7,64,336,64z
		 M278.8,424.8c-6.1,4.8-13.7,7.2-22.9,7.2c-8.5,0-16-2.4-22.4-7.2S224,414.4,224,408c0-7,3.2-12.8,9.6-17.3
		c6.4-4.5,13.8-6.7,22.4-6.7c9.2,0,16.8,2.2,22.9,6.7c6.1,4.5,9.2,10.2,9.2,17.3C288,414.4,284.9,420,278.8,424.8z M336,368H176V112
		h160V368z"/>
</g>
<g id="Ebene_3">
</g>
<g id="outlined">
</g>

</symbol>
<symbol id="ema-icon-set_news" viewBox="0 0 512 512">
<g id="EMA">
	<path d="M384,160v-16c0-8.8-7.2-16-16-16H80c-8.8,0-16,7.2-16,16v224c0,17.7,14.3,32,32,32h272h16h16c17.7,0,32-14.3,32-32V176
		c0-8.8-7.2-16-16-16H384z M112,368c-8.8,0-16-7.2-16-16V160h256v192c0,7.2,5,16,5,16H112z M240,288h80v-32h-80V288z M240,336h80
		v-32h-80V336z M128,192v32h192v-32H128z M128,336h80v-80h-80V336z"/>
</g>
<g id="Ebene_3">
</g>
<g id="outlined">
</g>

</symbol>
<symbol id="ema-icon-set_opinion" viewBox="0 0 512 512">
<g id="EMA">
	<g>
		<path d="M256,256V112c39.5,2.4,74.9,17.4,103.4,40.8L256,256z"/>
		<path d="M283.4,283l84.8-85c42.4,48.9,42.4,121.1,0,170L283.4,283z"/>
		<path d="M224,160v118l83,83.7C288.4,375.4,266,384,240.9,384C178.4,384,128,333.3,128,270.9C128,214.2,169.8,168.3,224,160z"/>
	</g>
</g>
<g id="Ebene_3">
</g>
<g id="outlined">
</g>

</symbol>
<symbol id="ema-icon-set_organizational-structure" viewBox="0 0 512 512">
<g id="EMA">
	<g>
		<path d="M410.9,176.3c3.4,2.1,5.1,5.3,5.1,9.6v186.6c0,4.3-1.7,7.5-5.1,9.6c-2.1,1.3-3.8,1.9-5.1,1.9c-2.1,0-4-0.6-5.8-1.9
			l-69.1-43.5l-69.1,43.5c-3.8,2.1-7.5,2.1-10.9,0l-69.7-43.5L112,382.1c-3.4,2.1-7,2.1-10.9,0c-3.4-2.1-5.1-5.3-5.1-9.6V185.9
			c0-4.3,1.7-7.5,5.1-9.6l74.9-46.7c3.4-2.1,7-2.1,10.9,0l69.1,43.5l69.7-43.5c3.4-2.1,6.8-2.1,10.2,0L410.9,176.3z M170.9,158.4
			l-53.7,33.2v161.7l53.7-33.2V158.4z M245.8,191.6L192,158.4v161.7l53.7,33.2V191.6z M320.6,158.4l-54.4,33.2v161.7l54.4-33.2
			V158.4z M394.9,191.6l-53.7-33.2v161.7l53.7,33.2V191.6z"/>
	</g>
</g>
<g id="Ebene_3">
</g>
<g id="outlined">
</g>

</symbol>
<symbol id="ema-icon-set_pdf" viewBox="0 0 512 512">
<g id="EMA">
	<path d="M387.7,147.7l-71.4-71.4c-7.9-7.9-18.6-12.3-29.7-12.3H96c-17.7,0-32,14.3-32,32v320c0,17.7,14.3,32,32,32h272
		c17.7,0,32-14.3,32-32V177.4C400,166.3,395.6,155.6,387.7,147.7z M376.4,159c0.3,0.3,0.6,0.7,0.9,1H304V86.7c0,0.3,0.7,0.6,1,0.9
		L376.4,159z M384,416c0,8.8-7.2,16-16,16H96c-8.8,0-16-7.2-16-16V96c-0.1-9.7,7.1-16.6,16-16h190.6c0.5,0,1.4,0,1.4,0v96h96
		c0,0.5,0,0.9,0,1.4V416z M362.6,301.7c-5.4-5.2-17.4-7.9-35.6-8.1c-12.3-0.1-27.2,0.9-42.8,3c-7-3.9-14.2-8.2-19.8-13.3
		c-15.2-13.8-27.9-32.9-35.8-53.9c0.5-2,1-3.7,1.4-5.4c0,0,8.6-47.1,6.3-63.1c-0.3-2.2-0.5-2.8-1.1-4.5l-0.7-1.9
		c-2.3-5.2-6.9-10.7-14.1-10.4L216,144c-8,0-14.5,4-16.2,9.9c-5.2,18.6,0.2,46.3,9.9,82.3l-2.5,5.9c-7,16.4-15.7,33-23.4,47.6
		l-1,1.9c-8.1,15.3-15.4,28.4-22.1,39.4l-6.9,3.5c-0.5,0.3-12.3,6.3-15,7.9c-23.4,13.6-39,28.9-41.5,41.2c-0.8,3.9-0.2,8.9,4,11.2
		l6.6,3.2c2.9,1.4,5.9,2.1,9,2.1c16.7,0,36.1-20.1,62.8-65.3c30.8-9.7,65.9-17.8,96.7-22.3c23.4,12.8,52.3,21.7,70.4,21.7
		c3.2,0,6-0.3,8.3-0.9c3.5-0.9,6.4-2.8,8.2-5.4c3.5-5.1,4.2-12.2,3.3-19.5C366.3,306.2,364.6,303.5,362.6,301.7L362.6,301.7z
		 M115.9,386.5c3-7.9,14.8-23.5,32.2-37.3c1.1-0.9,3.8-3.3,6.3-5.6C136.1,371.8,123.9,383,115.9,386.5z M216.1,153.2
		c5.3,0,8.2,12.8,8.5,24.8s-2.7,20.5-6.3,26.7c-3-9.2-4.4-23.8-4.4-33.3C213.9,171.4,213.7,153.2,216.1,153.2L216.1,153.2z
		 M188.3,316.3c3.7-6.3,7.5-13,11.4-20.1c9.5-17.4,15.5-31,19.9-42.1c8.9,15.6,19.9,28.9,32.9,39.6c1.6,1.3,3.3,2.7,5.1,4
		C231.2,302.7,208.4,308.8,188.3,316.3L188.3,316.3z M355.8,317.9c-1.6,1-6.2,1.5-9.2,1.5c-9.6,0-21.4-4.2-38-11.1
		c6.4-0.5,12.2-0.7,17.5-0.7c9.6,0,12.4,0,21.8,2.3S357.4,316.9,355.8,317.9L355.8,317.9z"/>
</g>
<g id="Ebene_3">
</g>
<g id="outlined">
</g>

</symbol>
<symbol id="ema-icon-set_phone" viewBox="0 0 512 512">
<g id="EMA">
	<path d="M271.4,271c7.6-7.6,14.8-15.2,21.7-22.8c6.8-7.6,12.6-14.9,17.1-22c4.6-7.1,7.6-13.5,9.1-19.3c1.5-5.8,0.5-10.5-3-14
		c-5.1-5.1-9.6-9.7-13.7-14c-4.1-4.3-6.6-9.2-7.6-14.8c-1-5.6-0.1-12,2.6-19.4c2.8-7.3,8.5-16.3,17.1-26.9
		c8.6-11.1,16.6-17.8,24-20.1s14.2-2,20.5,0.8s12.2,7,17.5,12.5c5.3,5.6,10.3,10.6,14.8,15.2c5.6,5.6,8.4,14.6,8.4,26.9
		c0,12.4-3.2,26.9-9.5,43.6s-16,34.9-28.9,54.7c-13,19.7-29.6,39.7-49.8,60s-40.3,36.8-60.1,49.7c-19.8,12.9-38,22.6-54.8,29.2
		c-16.7,6.6-31.3,9.9-43.8,9.9s-21.4-2.8-27-8.4c-4.6-4.5-9.8-9.6-15.6-15.2c-5.8-5.6-10-11.5-12.6-17.8c-2.6-6.3-2.6-13.2-0.4-20.5
		c2.3-7.3,8.7-15.3,19.4-23.9c10.6-8.6,19.7-14.3,27-17.1c7.3-2.8,13.8-3.5,19.4-2.3c5.6,1.3,10.5,3.9,14.8,8
		c4.3,4.1,9,8.6,14.1,13.7c3.5,3.5,8.2,4.5,14.1,3c5.8-1.5,12.3-4.5,19.4-9.1s14.6-10.4,22.4-17.5
		C256.1,285.9,263.8,278.6,271.4,271z"/>
</g>
<g id="Ebene_3">
</g>
<g id="outlined">
</g>

</symbol>
<symbol id="ema-icon-set_play" viewBox="0 0 512 512">
<g id="EMA">
	<path d="M512,256.6C511.5,397.2,395.8,512.7,255.9,512C114.2,511.3-0.7,396,0,255.3C0.7,114.2,115.6-0.4,256.1,0
		C397.6,0.4,512.5,115.5,512,256.6z M256,496c131.3,0.3,239.6-107.5,240-239c0.4-132.9-106.9-240.6-240-241
		C124.2,15.6,16,123.9,16,256C16,388,123.6,495.7,256,496z M204.6,133L204.6,133c2.4,0,4.9,0.7,7.4,2c11.7,6.4,88.5,52.9,139.3,83.6
		c15.2,9.2,28.7,17.4,38.6,23.3c11.6,7,10.4,13.8,10,16c-0.5,3-2,7-8.7,11.1c-34.5,20.8-69.5,42-103.4,62.4
		c-24.2,14.6-48.4,29.1-72.5,43.7c-4.1,2.5-7.6,3.7-10.5,3.7c-0.9,0-1.8-0.1-2.8-0.3c-8.8-2.1-9.8-10.5-9.8-14.1V143.7
		C193.5,137.2,198.6,133,204.6,133 M204.6,117c-13.4,0-28.6,14.1-28.6,27.1v220.4c0,15,8.7,26.5,22.1,29.6c2.2,0.5,4.3,0.8,6.4,0.8
		c6.6,0,12.8-2.4,18.8-6c58.7-35.4,117.3-70.7,176-106.1c8.3-5,14.4-12,16.2-21.9c2.3-12.9-4-24.3-17.5-32.5
		c-44.3-26.7-162.9-98.8-178.4-107.3C214.6,118.3,209.5,117,204.6,117L204.6,117z"/>
</g>
<g id="Ebene_3">
</g>
<g id="outlined">
</g>

</symbol>
<symbol id="ema-icon-set_plus" viewBox="0 0 512 512">
<g id="EMA">
	<path d="M345.6,272h-67.2c-3.5,0-6.4,2.9-6.4,6.4v67.2c0,3.5-2.9,6.4-6.4,6.4h-19.2c-3.5,0-6.4-2.9-6.4-6.4v-67.2
		c0-3.5-2.9-6.4-6.4-6.4h-67.2c-3.5,0-6.4-2.9-6.4-6.4v-19.2c0-3.5,2.9-6.4,6.4-6.4h67.2c3.5,0,6.4-2.9,6.4-6.4v-67.2
		c0-3.5,2.9-6.4,6.4-6.4l19.2,0c3.5,0,6.4,2.9,6.4,6.4v67.2c0,3.5,2.9,6.4,6.4,6.4h67.2c3.5,0,6.4,2.9,6.4,6.4v19.2
		C352,269.1,349.1,272,345.6,272z"/>
</g>
<g id="Ebene_3">
</g>
<g id="outlined">
</g>

</symbol>
<symbol id="ema-icon-set_powerpoint" viewBox="0 0 512 512">
<g id="EMA">
	<path d="M387.7,147.7l-71.4-71.4c-7.9-7.9-18.6-12.3-29.7-12.3H96c-17.7,0-32,14.3-32,32v320c0,17.7,14.3,32,32,32h272
		c17.7,0,32-14.3,32-32V177.4C400,166.3,395.6,155.6,387.7,147.7z M376.4,159c0.3,0.3,0.6,0.7,0.9,1H304V86.7c0,0.3,0.7,0.6,1,0.9
		L376.4,159z M384,416c0,8.8-7.2,16-16,16H96c-8.8,0-16-7.2-16-16V96c-0.1-9.7,7.1-16.6,16-16h190.6c0.5,0,1.4,0,1.4,0v96h96
		c0,0.5,0,0.9,0,1.4V416z"/>
	<path d="M128,288c0-53,43-96,96-96v96H128z"/>
	<path d="M144,304c0,53,43,96,96,96s96-43,96-96s-42-96-96-96v96H144z"/>
</g>
<g id="Ebene_3">
</g>
<g id="outlined">
</g>

</symbol>
<symbol id="ema-icon-set_related-applications" viewBox="0 0 512 512">
<g id="EMA">
	<path d="M186.7,96c28.4,0,42.7,14.2,42.7,42.7v48c0,28.5-14.2,42.7-42.7,42.7h-48c-28.4,0-42.7-14.2-42.7-42.7v-48
		c0-28.5,14.2-42.7,42.7-42.7H186.7z M186.7,282.7c28.4,0,42.7,14.2,42.7,42.7v48c0,28.5-14.2,42.7-42.7,42.7h-48
		c-28.4,0-42.7-14.2-42.7-42.7v-48c0-28.4,14.2-42.7,42.7-42.7H186.7z M373.3,96c28.4,0,42.7,14.2,42.7,42.7v48
		c0,28.5-14.2,42.7-42.7,42.7h-48c-28.5,0-42.7-14.2-42.7-42.7v-48c0-28.5,14.2-42.7,42.7-42.7H373.3z M373.3,282.7
		c28.4,0,42.7,14.2,42.7,42.7v48c0,28.5-14.2,42.7-42.7,42.7h-48c-28.5,0-42.7-14.2-42.7-42.7v-48c0-28.4,14.2-42.7,42.7-42.7H373.3
		z"/>
</g>
<g id="Ebene_3">
</g>
<g id="outlined">
</g>

</symbol>
<symbol id="ema-icon-set_related-documents" viewBox="0 0 512 512">
<g id="EMA">
	<path d="M416,208h0.2c8.7,0,15.8,7.1,15.8,15.8v0.2c0,0-16.1,160.7-16.1,161.2c-0.5,8.3-7.5,14.8-15.8,14.8H111.5
		c-8.4,0-15.4-6.4-16-14.8C95.5,384.8,80,224,80,224v-0.2c0-8.7,7.1-15.8,15.8-15.8H96H416z M400,192H112l5.3-47.7
		c0.9-4.5,3.1-8.4,6.5-11.5c3.4-3.2,7.6-4.8,12.6-4.8h57.7c5,0,10.2,1,15.7,3.1c5.4,2,10,4.9,13.6,8.5l10.2,10.2
		c9.2,9.2,24.2,10.3,29.2,10.3h113.6c5,0,9.4,1.4,13.2,4.1c3.9,2.7,6.2,5.9,7.1,9.5L400,192z"/>
</g>
<g id="Ebene_3">
</g>
<g id="outlined">
</g>

</symbol>
<symbol id="ema-icon-set_related-links" viewBox="0 0 512 512">
<g id="EMA">
	<path d="M416,331.3c0,15.7-5.6,29-16.7,39.8l-28.8,28.6c-10.8,10.8-24.1,16.3-39.8,16.3c-15.8,0-29.2-5.6-40-16.7l-40.4-40.6
		c-10.8-10.8-16.3-24.1-16.3-39.8c0-16.1,5.8-29.7,17.3-41L234,260.7c-11.2,11.5-24.8,17.3-40.8,17.3c-15.7,0-29-5.5-40-16.5
		l-40.8-40.8c-11-11-16.5-24.3-16.5-40s5.6-29,16.7-39.8l28.8-28.6c10.8-10.8,24.1-16.3,39.8-16.3c15.8,0,29.2,5.6,40,16.7
		l40.4,40.6c10.8,10.8,16.3,24.1,16.3,39.8c0,16.1-5.8,29.7-17.3,41l17.3,17.3c11.2-11.5,24.8-17.3,40.8-17.3c15.7,0,29,5.5,40,16.5
		l40.8,40.8C410.5,302.3,416,315.6,416,331.3z M240.5,193.1c0-5.2-1.8-9.7-5.5-13.3l-40.4-40.6c-3.7-3.7-8.1-5.5-13.3-5.5
		c-5.1,0-9.5,1.8-13.3,5.3l-28.8,28.6c-3.7,3.7-5.5,8-5.5,13.1c0,5.2,1.8,9.7,5.5,13.3l40.8,40.8c3.5,3.5,8,5.3,13.3,5.3
		c5.5,0,10.2-2,14.1-6.1c-0.4-0.4-1.6-1.6-3.7-3.6c-2.1-2-3.5-3.4-4.2-4.2c-0.7-0.8-1.7-2-2.9-3.7c-1.2-1.7-2.1-3.4-2.5-5
		c-0.5-1.6-0.7-3.4-0.7-5.4c0-5.2,1.8-9.7,5.5-13.3c3.7-3.7,8.1-5.5,13.3-5.5c2,0,3.8,0.2,5.4,0.7c1.6,0.5,3.3,1.3,5,2.5
		c1.7,1.2,2.9,2.2,3.7,2.9c0.8,0.7,2.2,2.1,4.2,4.2c2,2.1,3.2,3.3,3.6,3.7C238.4,203.3,240.5,198.5,240.5,193.1z M378.4,331.3
		c0-5.2-1.8-9.7-5.5-13.3l-40.8-40.8c-3.7-3.7-8.1-5.5-13.3-5.5c-5.5,0-10.2,2.1-14.1,6.3c0.4,0.4,1.6,1.6,3.7,3.6
		c2.1,2,3.5,3.4,4.2,4.2c0.7,0.8,1.7,2,2.9,3.7c1.2,1.7,2.1,3.4,2.5,5c0.5,1.6,0.7,3.4,0.7,5.4c0,5.2-1.8,9.7-5.5,13.3
		c-3.7,3.7-8.1,5.5-13.3,5.5c-2,0-3.8-0.2-5.4-0.7c-1.6-0.5-3.3-1.3-5-2.5c-1.7-1.2-2.9-2.2-3.7-2.9c-0.8-0.7-2.2-2.1-4.2-4.2
		c-2-2.1-3.2-3.3-3.6-3.7c-4.3,4.1-6.5,8.8-6.5,14.3c0,5.2,1.8,9.7,5.5,13.3l40.4,40.6c3.5,3.5,8,5.3,13.3,5.3
		c5.2,0,9.7-1.7,13.3-5.1l28.8-28.6C376.5,340.8,378.4,336.4,378.4,331.3z"/>
</g>
<g id="Ebene_3">
</g>
<g id="outlined">
</g>

</symbol>
<symbol id="ema-icon-set_reply" viewBox="0 0 512 512">
<g id="EMA">
	<path d="M288,279c-14.2,0-27.5-0.1-39.9,1c-12.3,1.1-23.8,4.3-34.3,8.2c-10.6,3.9-20.4,9.7-29.4,17.2c-9,7.5-17.1,17.7-24.4,30.6
		c5.4-21.3,13.6-40.5,24.6-57.4c4.8-7.2,10.3-14.3,16.8-21.2c6.5-6.9,14-13,22.5-18.4c8.5-5.3,17.8-10.6,28.7-12.9
		c12.7-2.8,35.4-2.1,35.4-2.1v-48l80,80l-80,80V279z"/>
</g>
<g id="Ebene_3">
</g>
<g id="outlined">
</g>

</symbol>
<symbol id="ema-icon-set_search" viewBox="0 0 512 512">
<g id="EMA">
	<path d="M308.2,276.6c0.1-0.1,0.2-0.3,0.3-0.5c7.6-13.1,11.4-27.5,11.4-42.9c0-12-2.4-23.4-7.3-34.2c-4.8-10.8-11.4-20.3-19.6-28.3
		c-8.2-8-17.7-14.5-28.6-19.3c-10.8-4.9-22.2-7.3-34.2-7.3c-12,0-23.2,2.3-33.6,6.7c-10.5,4.5-19.6,10.6-27.4,18.5
		c-7.8,7.8-14,17.1-18.5,27.7c-4.5,10.6-6.7,22-6.7,33.9c0,12,2.4,23.4,7.3,34.2c4.9,10.8,11.3,20.3,19.3,28.3
		c8,8,17.4,14.5,28.3,19.3c10.8,4.9,22.2,7.3,34.2,7.3c7.8,0,15.5-1,23-3.1c7.4-2,14.2-4.9,20.5-8.6l55.3,55.7c2.6,2.7,5.7,4,9.3,4
		c3.6,0,6.8-1.3,9.8-4l13.9-14c4.5-5.3,4.2-12.2-1.4-18.6L308.2,276.6z M232,294c-34.2,0-62-27.8-62-62s27.8-62,62-62s62,27.8,62,62
		S266.2,294,232,294z"/>
</g>
<g id="Ebene_3">
</g>
<g id="outlined">
</g>

</symbol>
<symbol id="ema-icon-set_select" viewBox="0 0 512 512">
<g id="EMA">
	<polygon fill-rule="evenodd" clip-rule="evenodd" points="352,199.9 327,176 216.5,287.7 170,240 143.8,262.4 217.4,336 	"/>
</g>
<g id="Ebene_3">
</g>
<g id="outlined">
</g>

</symbol>
<symbol id="ema-icon-set_settings" viewBox="0 0 512 512">
<g id="EMA">
	<path d="M359.6,256c0,8.1,2.2,15.2,6.7,21.3c4.5,6.1,10.4,11.4,17.7,15.9c-2.4,8.1-5.9,16.5-10.4,25c-8.1-2-15.6-1.7-22.6,0.9
		c-6.9,2.7-13.2,6.8-18.9,12.5c-11,11.8-14.4,25.6-10.4,41.5c-8.1,4.5-16.7,8.1-25.6,11c-4.5-7.7-10.3-13.8-17.4-18.3
		c-7.1-4.5-14.7-6.7-22.9-6.7c-8.1,0-15.8,2.2-22.9,6.7c-7.1,4.5-12.9,10.6-17.4,18.3c-9.4-2.8-17.9-6.5-25.6-11
		c4.1-16.3,0.6-30.1-10.4-41.5c-11-11-24.8-14.4-41.5-10.4c-2-4.1-3.9-8.1-5.5-12.2c-1.6-4.1-3.3-8.3-4.9-12.8
		c7.3-4.5,13.3-10.3,18-17.4c4.7-7.1,7-14.7,7-22.9c0-8.1-2.3-15.3-7-21.6c-4.7-6.3-10.7-11.7-18-16.2c1.6-4.5,3.3-8.7,4.9-12.8
		c1.6-4.1,3.5-8.1,5.5-12.2c8.5,2,16.2,1.7,22.9-0.9c6.7-2.6,12.9-6.8,18.6-12.5c11-11,14.4-24.8,10.4-41.5
		c8.5-4.5,17.1-7.9,25.6-10.4c4.5,7.3,10.3,13.2,17.4,17.7c7.1,4.5,14.7,6.7,22.9,6.7c8.1,0,15.7-2.2,22.9-6.7
		c7.1-4.5,12.9-10.4,17.4-17.7c8.5,2.4,17.1,5.9,25.6,10.4c-4.1,15.9-0.6,29.7,10.4,41.5c5.7,5.7,12,9.9,18.9,12.5
		c6.9,2.6,14.4,2.9,22.6,0.9c4.5,8.5,7.9,16.9,10.4,25c-7.3,4.5-13.2,9.9-17.7,16.2C361.8,240.7,359.6,247.9,359.6,256z M256,311.5
		c7.7,0,14.9-1.4,21.6-4.3c6.7-2.8,12.6-6.8,17.7-11.9s9-11,11.9-17.7c2.8-6.7,4.3-13.9,4.3-21.6c0-7.7-1.4-15-4.3-21.9
		c-2.8-6.9-6.8-12.9-11.9-18c-5.1-5.1-11-9-17.7-11.9c-6.7-2.8-13.9-4.3-21.6-4.3c-7.7,0-14.9,1.4-21.6,4.3
		c-6.7,2.8-12.6,6.8-17.7,11.9c-5.1,5.1-9,11.1-11.9,18c-2.8,6.9-4.3,14.2-4.3,21.9c0,15.4,5.4,28.6,16.2,39.3
		C227.5,306.1,240.5,311.5,256,311.5z"/>
</g>
<g id="Ebene_3">
</g>
<g id="outlined">
</g>

</symbol>
<symbol id="ema-icon-set_share" viewBox="0 0 512 512">
<g id="EMA">
	<path d="M198,297.9c-9.9,7.6-20.9,11.4-32.7,11.4c-14.7,0-27.3-5.2-37.7-15.6c-10.4-10.4-15.6-23-15.6-37.7
		c0-15.2,5.2-27.8,15.6-38c10.4-10.2,23-15.3,37.7-15.3c12.3,0,23.2,3.6,32.7,10.7l96-55.5c0-1.4-0.1-2.8-0.3-4.3
		c-0.3-1.4-0.4-2.8-0.4-4.3c0-15.2,5.2-27.8,15.6-38.1c10.4-10.2,23-15.3,37.7-15.3c15.2,0,27.8,5.1,38,15.3
		c10.2,10.2,15.3,22.9,15.3,38.1c0,14.7-5.1,27.3-15.3,37.7c-10.2,10.4-22.9,15.6-38,15.6c-12.3,0-23-3.8-32-11.4l-96.7,55.5
		c0.5,1.9,0.7,5,0.7,9.2c0,3.8-0.2,6.6-0.7,8.5l96.7,55.5c8.5-7.1,19.2-10.7,32-10.7c15.2,0,27.8,5.1,38,15.3
		c10.2,10.2,15.3,22.9,15.3,38c0,14.7-5.1,27.3-15.3,37.7c-10.2,10.4-22.9,15.7-38,15.7c-14.7,0-27.3-5.2-37.7-15.7
		c-10.4-10.4-15.6-23-15.6-37.7c0-1.9,0.1-3.6,0.4-5c0.2-1.4,0.3-2.8,0.3-4.3L198,297.9z"/>
</g>
<g id="Ebene_3">
</g>
<g id="outlined">
</g>

</symbol>
<symbol id="ema-icon-set_subscribe" viewBox="0 0 512 512">
<g id="EMA">
	<path d="M406.5,128.5c3.2-0.9,5.8-0.6,7.6,1c1.8,1.6,2.3,3.8,1.4,6.6c0,0.9-1.3,6.7-3.8,17.3c-2.6,10.6-5.7,23.7-9.4,39.4
		c-3.7,15.6-7.6,32.6-11.8,50.8c-4.2,18.2-8.1,35.1-11.8,50.8c-3.7,15.6-6.8,29-9.4,40.1c-2.6,11-4.1,17-4.5,18
		c-0.9,3.2-2.7,5.4-5.2,6.6c-2.6,1.2-5.2,1-8-0.3C350.3,357.6,256,304,256,304s54.2-57.2,74.1-78.8c8.3-9.2,16.7-18.2,25-26.9
		c8.3-8.8,15.7-16.6,22.2-23.5c6.5-6.9,11.7-12.5,15.6-16.9c3.9-4.4,6.1-6.8,6.6-7.3c0.9-0.9,0.8-2-0.3-3.1
		c-1.2-1.1-2.2-1.3-3.1-0.4c-0.5,0.5-3.5,2.8-9,6.9c-5.6,4.1-12.9,9.4-21.9,15.9c-9,6.5-19.3,13.8-30.9,22.1
		c-11.6,8.3-23.2,16.8-34.7,25.6c-27.8,20.3-56.4,45.1-91.6,70.4l-107.8-43.5c-3.2-0.9-4.6-2.3-4.2-4.1c0.5-1.8,1.8-3.2,4.2-4.1
		c0.9-0.5,9-3.3,24.3-8.6c15.3-5.3,34-11.8,56.3-19.7c22.2-7.8,46.4-16.4,72.6-25.6c26.1-9.2,50.3-17.7,72.6-25.6
		c22.2-7.8,41-14.4,56.3-19.7C397.5,131.8,405.6,129,406.5,128.5z M208,309.5l55.5,26.5c-8.8,8.5-23,23-49.3,46
		c-4.2,3.2-6.2,2.5-6.2-2.1V309.5z"/>
</g>
<g id="Ebene_3">
</g>
<g id="outlined">
</g>

</symbol>
<symbol id="ema-icon-set_training-courses" viewBox="0 0 512 512">
<g id="EMA">
	<path d="M363.5,147.8c6.1,6.1,10.6,11.8,13.5,17.1c2.8,5.2,4.7,9.6,5.6,13.1c1.3,4.4,1.9,10.5,1.5,14L208,368l-80,16l16-80l176-176
		c3.5-0.4,9.6,0.2,14,1.5c3.5,0.9,7.8,2.6,12.8,5.2C351.8,137.3,357.4,141.7,363.5,147.8z M209.3,349.9c-0.4-2.6-1.3-5.7-2.6-9.2
		c-2.2-6.1-7-13.3-14.4-21.6c-3.9-4-7.7-7.1-11.5-9.5c-3.7-2.4-7.1-4-10.2-4.9c-3.5-1.3-6.6-2-9.2-2l-7.2,7.9l-5.9,26.2
		c2.2,1.3,4.6,2.9,7.2,4.6c2.6,1.8,5.2,3.9,7.9,6.6c5.2,5.2,9.2,10.5,11.8,15.8l26.3-5.9L209.3,349.9z"/>
</g>
<g id="Ebene_3">
</g>
<g id="outlined">
</g>

</symbol>
<symbol id="ema-icon-set_twitter" viewBox="0 0 512 512">
<g id="EMA">
	<path d="M355.4,143.9c7.4-2.4,14.3-5.5,20.8-9.2c2.8-1.6,6.1-2.4,9.8-2.4c4.5,0,8.6,1.4,12.3,4.3c6.5,5.3,8.6,12.2,6.1,20.8
		c5.7,3.7,8.6,9,8.6,15.9c0,4.5-1.2,8.4-3.7,11.6c-7,9.8-15.1,18.6-24.5,26.3c0,21.6-4.3,42.7-12.9,63.1
		c-8.6,20.4-20.3,38.8-35.3,55.1C321.7,345.8,302.8,359,280,369c-22.9,10-47.8,15-74.8,15c-35.2,0-67.4-9.2-96.9-27.6
		c-4.1-2.4-6.9-5.8-8.3-10.1c-1.4-4.3-1.3-8.7,0.3-13.2c2.8-8.6,9-12.9,18.4-12.9c0.8,0,1.6,0,2.5,0c3.3,0.4,6.9,0.6,11,0.6
		c7.4,0,14.3-0.8,20.8-2.4c-10.6-9-18-20-22.1-33.1c-1.2-3.7-1.5-7.1-0.6-10.4c-13.5-14.3-20.2-31-20.2-50.2v-0.6
		c0-5.3,1.6-9.8,4.9-13.5c-2.9-8.2-4.3-16.7-4.3-25.7c0-13.5,3.5-25.9,10.4-37.4c3.3-5.7,8.4-8.8,15.3-9.2c0.4,0,0.8,0,1.2,0
		c6.1,0,11.2,2.3,15.3,6.7c20.8,24.9,47.6,40.8,80.3,47.8c2.5-18.4,10.8-33.8,25.1-46.2c14.3-12.5,31-18.7,50.3-18.7
		C325.9,128,341.5,133.3,355.4,143.9z M268.9,163.8c-11,10.8-16.6,23.8-16.6,38.9c0,4.1,0.6,8.2,1.8,12.2c-23.3-1.2-45-6.8-65-16.8
		c-20-10-37.2-23.4-51.5-40.1c-4.9,8.2-7.4,17.1-7.4,26.9c0,19.6,8.4,34.9,25.1,45.9c-9.4-0.4-18-2.6-25.8-6.7v0.6
		c0,13.1,4.3,24.6,12.9,34.6c8.6,10,19.4,16.2,32.5,18.7c-4.9,1.2-10,1.8-15.3,1.8c-3.3,0-6.7-0.2-10.4-0.6
		c3.7,11,10.3,20,19.9,26.9c9.6,6.9,20.6,10.6,32.8,11c-20.5,15.5-43.8,23.3-69.9,23.3c-4.5,0-9-0.2-13.5-0.6
		c26.1,16.3,55,24.5,86.4,24.5c24.9,0,47.8-4.7,68.7-14.1c20.8-9.4,37.7-21.6,50.6-36.7c12.9-15.1,22.9-31.8,30-49.9
		c7.2-18.2,10.7-36.4,10.7-54.8c0-2.4,0-4.9,0-7.3c11-7.8,20.4-17.1,28.2-28.2c-10.2,4.5-21.1,7.3-32.5,8.6
		c12.3-6.9,20.6-16.9,25.1-30c-11,6.1-23.1,10.6-36.2,13.5c-11-11.8-24.8-17.8-41.1-17.8C293.2,147.6,280,153,268.9,163.8z"/>
</g>
<g id="Ebene_3">
</g>
<g id="outlined">
</g>

</symbol>
<symbol id="ema-icon-set_word" viewBox="0 0 512 512">
<g id="EMA">
	<g>
		<path d="M166.7,400L128,208h39.4c0,0,19.3,126.8,22,146.1h0.5c2.7-20.8,24.4-146.1,24.4-146.1h39.2c0,0,19.3,123.9,21.8,145.3h0.5
			c2.4-21.4,22.7-145.3,22.7-145.3H336l-42.1,192H256c0,0-21.6-119.9-23.5-141.9H232c-2.9,21.7-24,141.9-24,141.9H166.7z"/>
	</g>
	<path d="M387.7,147.7l-71.4-71.4c-7.9-7.9-18.6-12.3-29.7-12.3H96c-17.7,0-32,14.3-32,32v320c0,17.7,14.3,32,32,32h272
		c17.7,0,32-14.3,32-32V177.4C400,166.3,395.6,155.6,387.7,147.7z M376.4,159c0.3,0.3,0.6,0.7,0.9,1H304V86.7c0,0.3,0.7,0.6,1,0.9
		L376.4,159z M384,416c0,8.8-7.2,16-16,16H96c-8.8,0-16-7.2-16-16V96c-0.1-9.7,7.1-16.6,16-16h190.6c0.5,0,1.4,0,1.4,0v96h96
		c0,0.5,0,0.9,0,1.4V416z"/>
</g>
<g id="Ebene_3">
</g>
<g id="outlined">
</g>

</symbol>
<symbol id="ema-icon-set_zip" viewBox="0 0 512 512">
<g id="EMA">
	<path d="M400,208l-64,0v16h-16v16h16v16h-16v16h16v16h-16v16h16v16h-16v16h16v32.2c0,8.7-7.1,15.8-15.8,15.8h-0.3
		c-8.7,0-15.8-7.1-15.8-15.8V336v-16h16v-16h-16v-16h16v-16h-16v-16h16v-16h-16v-16h16v-16l-57.2,0c-5,0-20.1-1.1-29.2-10.3
		l-10.2-10.2c-3.6-3.6-8.2-6.5-13.6-8.5c-5.4-2-10.7-3.1-15.7-3.1H112c-8.8,0-16,7.2-16,16v192c0,8.8,7.2,16,16,16h288
		c8.8,0,16-7.2,16-16V224C416,215.2,408.8,208,400,208z"/>
</g>
<g id="Ebene_3">
</g>
<g id="outlined">
</g>

</symbol></svg>