<?xml version="1.0" encoding="utf-8"?>
<!-- Generator: Adobe Illustrator 17.1.0, SVG Export Plug-In . SVG Version: 6.00 Build 0)  -->
<!DOCTYPE svg PUBLIC "-//W3C//DTD SVG 1.1//EN" "http://www.w3.org/Graphics/SVG/1.1/DTD/svg11.dtd">
<svg version="1.1" xmlns="http://www.w3.org/2000/svg" xmlns:xlink="http://www.w3.org/1999/xlink" x="0px" y="0px" width="512px"
	 height="512px" viewBox="0 0 512 512" enable-background="new 0 0 512 512" xml:space="preserve">
<g id="EMA">
	<g>
		<path d="M247.8,128.5c42.6-4.8,72.3,23,68.4,70.6c-1.1,13.3-6.7,29.1-13.4,40.8c-6.4,11.1-20.7,21.9-16.9,36
			c2.4,8.9,22.4,14.2,29.6,17.3c18.4,7.9,44.3,19.8,50.8,38.8c1.7,4.9,2.9,16.8,0,24.2c-10.3,26.3-74.4,27.7-110,27.7
			c-19.7,0-43.6-0.3-64.9-4.2c-24.7-4.5-54.7-14.2-45.8-46.4c4-14.5,21.8-25.1,38.1-33.9c4.7-2.6,14.7-8.1,24-11.8
			c7.8-3.1,18.7-5.9,19.7-15.9c0.8-8.5-4.6-13-9.9-20.1c-11.9-16.1-23.2-38.1-21.2-67.8C198.3,154.7,216.8,132,247.8,128.5z"/>
	</g>
</g>
<g id="Ebene_3">
</g>
<g id="outlined">
</g>
</svg>
