<?xml version="1.0" encoding="utf-8"?>
<!-- Generator: Adobe Illustrator 17.1.0, SVG Export Plug-In . SVG Version: 6.00 Build 0)  -->
<!DOCTYPE svg PUBLIC "-//W3C//DTD SVG 1.1//EN" "http://www.w3.org/Graphics/SVG/1.1/DTD/svg11.dtd">
<svg version="1.1" xmlns="http://www.w3.org/2000/svg" xmlns:xlink="http://www.w3.org/1999/xlink" x="0px" y="0px" width="512px"
	 height="512px" viewBox="0 0 512 512" enable-background="new 0 0 512 512" xml:space="preserve">
<g id="EMA">
	<path d="M186.7,96c28.4,0,42.7,14.2,42.7,42.7v48c0,28.5-14.2,42.7-42.7,42.7h-48c-28.4,0-42.7-14.2-42.7-42.7v-48
		c0-28.5,14.2-42.7,42.7-42.7H186.7z M186.7,282.7c28.4,0,42.7,14.2,42.7,42.7v48c0,28.5-14.2,42.7-42.7,42.7h-48
		c-28.4,0-42.7-14.2-42.7-42.7v-48c0-28.4,14.2-42.7,42.7-42.7H186.7z M373.3,96c28.4,0,42.7,14.2,42.7,42.7v48
		c0,28.5-14.2,42.7-42.7,42.7h-48c-28.5,0-42.7-14.2-42.7-42.7v-48c0-28.5,14.2-42.7,42.7-42.7H373.3z M373.3,282.7
		c28.4,0,42.7,14.2,42.7,42.7v48c0,28.5-14.2,42.7-42.7,42.7h-48c-28.5,0-42.7-14.2-42.7-42.7v-48c0-28.4,14.2-42.7,42.7-42.7H373.3
		z"/>
</g>
<g id="Ebene_3">
</g>
<g id="outlined">
</g>
</svg>
