<?xml version="1.0" encoding="utf-8"?>
<!-- Generator: Adobe Illustrator 17.1.0, SVG Export Plug-In . SVG Version: 6.00 Build 0)  -->
<!DOCTYPE svg PUBLIC "-//W3C//DTD SVG 1.1//EN" "http://www.w3.org/Graphics/SVG/1.1/DTD/svg11.dtd">
<svg version="1.1" xmlns="http://www.w3.org/2000/svg" xmlns:xlink="http://www.w3.org/1999/xlink" x="0px" y="0px" width="512px"
	 height="512px" viewBox="0 0 512 512" enable-background="new 0 0 512 512" xml:space="preserve">
<g id="EMA">
	<path d="M334.2,195.2c2.4,2.4,2.4,6.3,0,8.7l-47.8,47.8c-2.4,2.4-2.4,6.3,0,8.7l47.8,47.8c2.4,2.4,2.4,6.3,0,8.7l-17.4,17.4
		c-2.4,2.4-6.3,2.4-8.7,0l-47.8-47.8c-2.4-2.4-6.3-2.4-8.7,0l-47.8,47.8c-2.4,2.4-6.3,2.4-8.7,0l-17.4-17.4c-2.4-2.4-2.4-6.3,0-8.7
		l47.8-47.8c2.4-2.4,2.4-6.3,0-8.7l-47.8-47.8c-2.4-2.4-2.4-6.3,0-8.7l17.4-17.4c2.4-2.4,6.3-2.4,8.7,0l47.7,47.8
		c2.4,2.4,6.3,2.4,8.7,0l47.8-47.8c2.4-2.4,6.3-2.4,8.7,0L334.2,195.2z"/>
</g>
<g id="Ebene_3">
</g>
<g id="outlined">
</g>
</svg>
