<?xml version="1.0" encoding="utf-8"?>
<!-- Generator: Adobe Illustrator 17.1.0, SVG Export Plug-In . SVG Version: 6.00 Build 0)  -->
<!DOCTYPE svg PUBLIC "-//W3C//DTD SVG 1.1//EN" "http://www.w3.org/Graphics/SVG/1.1/DTD/svg11.dtd">
<svg version="1.1" xmlns="http://www.w3.org/2000/svg" xmlns:xlink="http://www.w3.org/1999/xlink" x="0px" y="0px" width="512px"
	 height="512px" viewBox="0 0 512 512" enable-background="new 0 0 512 512" xml:space="preserve">
<g id="EMA">
	<path d="M355.4,143.9c7.4-2.4,14.3-5.5,20.8-9.2c2.8-1.6,6.1-2.4,9.8-2.4c4.5,0,8.6,1.4,12.3,4.3c6.5,5.3,8.6,12.2,6.1,20.8
		c5.7,3.7,8.6,9,8.6,15.9c0,4.5-1.2,8.4-3.7,11.6c-7,9.8-15.1,18.6-24.5,26.3c0,21.6-4.3,42.7-12.9,63.1
		c-8.6,20.4-20.3,38.8-35.3,55.1C321.7,345.8,302.8,359,280,369c-22.9,10-47.8,15-74.8,15c-35.2,0-67.4-9.2-96.9-27.6
		c-4.1-2.4-6.9-5.8-8.3-10.1c-1.4-4.3-1.3-8.7,0.3-13.2c2.8-8.6,9-12.9,18.4-12.9c0.8,0,1.6,0,2.5,0c3.3,0.4,6.9,0.6,11,0.6
		c7.4,0,14.3-0.8,20.8-2.4c-10.6-9-18-20-22.1-33.1c-1.2-3.7-1.5-7.1-0.6-10.4c-13.5-14.3-20.2-31-20.2-50.2v-0.6
		c0-5.3,1.6-9.8,4.9-13.5c-2.9-8.2-4.3-16.7-4.3-25.7c0-13.5,3.5-25.9,10.4-37.4c3.3-5.7,8.4-8.8,15.3-9.2c0.4,0,0.8,0,1.2,0
		c6.1,0,11.2,2.3,15.3,6.7c20.8,24.9,47.6,40.8,80.3,47.8c2.5-18.4,10.8-33.8,25.1-46.2c14.3-12.5,31-18.7,50.3-18.7
		C325.9,128,341.5,133.3,355.4,143.9z M268.9,163.8c-11,10.8-16.6,23.8-16.6,38.9c0,4.1,0.6,8.2,1.8,12.2c-23.3-1.2-45-6.8-65-16.8
		c-20-10-37.2-23.4-51.5-40.1c-4.9,8.2-7.4,17.1-7.4,26.9c0,19.6,8.4,34.9,25.1,45.9c-9.4-0.4-18-2.6-25.8-6.7v0.6
		c0,13.1,4.3,24.6,12.9,34.6c8.6,10,19.4,16.2,32.5,18.7c-4.9,1.2-10,1.8-15.3,1.8c-3.3,0-6.7-0.2-10.4-0.6
		c3.7,11,10.3,20,19.9,26.9c9.6,6.9,20.6,10.6,32.8,11c-20.5,15.5-43.8,23.3-69.9,23.3c-4.5,0-9-0.2-13.5-0.6
		c26.1,16.3,55,24.5,86.4,24.5c24.9,0,47.8-4.7,68.7-14.1c20.8-9.4,37.7-21.6,50.6-36.7c12.9-15.1,22.9-31.8,30-49.9
		c7.2-18.2,10.7-36.4,10.7-54.8c0-2.4,0-4.9,0-7.3c11-7.8,20.4-17.1,28.2-28.2c-10.2,4.5-21.1,7.3-32.5,8.6
		c12.3-6.9,20.6-16.9,25.1-30c-11,6.1-23.1,10.6-36.2,13.5c-11-11.8-24.8-17.8-41.1-17.8C293.2,147.6,280,153,268.9,163.8z"/>
</g>
<g id="Ebene_3">
</g>
<g id="outlined">
</g>
</svg>
