<?xml version="1.0" encoding="utf-8"?>
<!-- Generator: Adobe Illustrator 17.1.0, SVG Export Plug-In . SVG Version: 6.00 Build 0)  -->
<!DOCTYPE svg PUBLIC "-//W3C//DTD SVG 1.1//EN" "http://www.w3.org/Graphics/SVG/1.1/DTD/svg11.dtd">
<svg version="1.1" xmlns="http://www.w3.org/2000/svg" xmlns:xlink="http://www.w3.org/1999/xlink" x="0px" y="0px" width="512px"
	 height="512px" viewBox="0 0 512 512" enable-background="new 0 0 512 512" xml:space="preserve">
<g id="EMA">
	<path d="M394.6,272.7c2.2,4.5,3.8,9.8,4.7,15.9c0.9,6.1,0.9,11.6,0,16.5l-11.5,62.1c-0.9,4.9-3.2,9-6.8,12.1
		c-3.6,3.1-7.9,4.7-12.8,4.7H127.8c-5,0-9.2-1.6-12.8-4.7c-3.6-3.2-5.9-7.2-6.8-12.1l-11.5-62.1c-0.9-4.9-0.9-10.4,0-16.5
		c0.9-6.1,2.5-11.4,4.7-15.9l53.4-129.2c2.2-4.5,5.6-8.2,10.1-11.1c4.5-2.9,9.2-4.4,14.2-4.4h38.5l-9.6,64h-48l88,80l88-80h-48
		l-9.4-64h38.3c4.9,0,9.8,1.5,14.5,4.4c4.7,2.9,8.2,6.7,10.5,11.1L394.6,272.7z M365,322.3c0.9-5-1.5-9.2-4.4-12.9
		c-2.9-3.6-6.9-5.4-11.8-5.4H147.2c-5,0-8.9,1.8-11.8,5.4c-2.9,3.6-5.3,7.9-4.4,12.9l2,12c0.9,5,2.4,9.2,6,12.6
		c3.6,3.4,12.5,5.1,17,5.1h184c4.9,0,14.4-1.7,18-5.1c3.6-3.4,5.1-7.6,6-12.6L365,322.3z"/>
</g>
<g id="Ebene_3">
</g>
<g id="outlined">
</g>
</svg>
