<?xml version="1.0" encoding="utf-8"?>
<!-- Generator: Adobe Illustrator 17.1.0, SVG Export Plug-In . SVG Version: 6.00 Build 0)  -->
<!DOCTYPE svg PUBLIC "-//W3C//DTD SVG 1.1//EN" "http://www.w3.org/Graphics/SVG/1.1/DTD/svg11.dtd">
<svg version="1.1" xmlns="http://www.w3.org/2000/svg" xmlns:xlink="http://www.w3.org/1999/xlink" x="0px" y="0px" width="512px"
	 height="512px" viewBox="0 0 512 512" enable-background="new 0 0 512 512" xml:space="preserve">
<g id="EMA">
	<path d="M363,230.2c2.6-1.3,4.1-1.5,4.5-0.5c0.3,1,0.5,2,0.5,3v91.4c0,2.7-1.4,5.3-4.2,8c-2.8,2.7-5.6,4-8.2,4H156.4
		c-2.7,0-5.4-1.3-8.2-4s-4.2-5.3-4.2-8v-91.4c0-1,0.2-2,0.5-3c0.3-1,1.8-0.8,4.5,0.5c1,0.7,4.1,2.2,9.2,4.7
		c5.1,2.5,11.1,5.5,17.9,9.2c6.8,3.7,14.1,7.5,21.9,11.4c7.8,4,15,7.7,21.6,11.2c6.6,3.5,12.3,6.4,16.9,8.9c4.6,2.5,7.3,3.9,8,4.2
		c2.3,1.3,4.3,2.1,6,2.2c1.7,0.2,3.5,0.3,5.5,0.3c2,0,3.8-0.1,5.5-0.3c1.7-0.2,3.6-0.9,6-2.2c0.6-0.3,3.3-1.7,8-4.2
		c4.7-2.5,10.4-5.5,17.2-8.9c6.8-3.5,14.1-7.2,21.9-11.2c7.8-4,15.1-7.8,21.9-11.4c6.8-3.6,12.7-6.7,17.7-9.2
		C359,232.5,362,230.9,363,230.2z M151.5,205.1c-1.7-1-3.1-2.2-4.2-3.6c-1.2-1.5-2-2.9-2.5-4.4c-0.5-1.5-0.3-2.7,0.5-3.6
		c0.8-1,2.7-1.5,5.7-1.5h210.6c2.6,0,4.4,0.5,5.2,1.5c0.8,1,1.1,2.2,0.7,3.6c-0.3,1.5-1.2,2.9-2.5,4.4c-1.3,1.5-2.8,2.7-4.5,3.6
		c-1,0.6-3.9,2.2-8.7,4.6c-4.8,2.4-10.6,5.4-17.4,9c-6.8,3.6-14,7.3-21.6,11.2c-7.6,3.9-14.7,7.6-21.2,11.1
		c-6.5,3.6-12,6.5-16.7,8.7c-4.7,2.3-7.1,3.6-7.5,3.9c-1.7,1-3.5,1.6-5.5,1.9c-2,0.3-4,0.5-6,0.5c-4.7,0-8.5-0.8-11.5-2.4
		c-0.7-0.3-3.2-1.6-7.7-3.9c-4.5-2.3-9.9-5.2-16.4-8.7c-6.5-3.6-13.5-7.3-21.2-11.1c-7.6-3.9-14.9-7.6-21.6-11.2
		c-6.8-3.6-12.6-6.5-17.4-9C155.4,207.3,152.5,205.7,151.5,205.1z"/>
</g>
<g id="Ebene_3">
</g>
<g id="outlined">
</g>
</svg>
