<?xml version="1.0" encoding="utf-8"?>
<!-- Generator: Adobe Illustrator 17.1.0, SVG Export Plug-In . SVG Version: 6.00 Build 0)  -->
<!DOCTYPE svg PUBLIC "-//W3C//DTD SVG 1.1//EN" "http://www.w3.org/Graphics/SVG/1.1/DTD/svg11.dtd">
<svg version="1.1" xmlns="http://www.w3.org/2000/svg" xmlns:xlink="http://www.w3.org/1999/xlink" x="0px" y="0px" width="512px"
	 height="512px" viewBox="0 0 512 512" enable-background="new 0 0 512 512" xml:space="preserve">
<g id="EMA">
	<path d="M512,256.6C511.5,397.2,395.8,512.7,255.9,512C114.2,511.3-0.7,396,0,255.3C0.7,114.2,115.6-0.4,256.1,0
		C397.6,0.4,512.5,115.5,512,256.6z M256,496c131.3,0.3,239.6-107.5,240-239c0.4-132.9-106.9-240.6-240-241
		C124.2,15.6,16,123.9,16,256C16,388,123.6,495.7,256,496z M204.6,133L204.6,133c2.4,0,4.9,0.7,7.4,2c11.7,6.4,88.5,52.9,139.3,83.6
		c15.2,9.2,28.7,17.4,38.6,23.3c11.6,7,10.4,13.8,10,16c-0.5,3-2,7-8.7,11.1c-34.5,20.8-69.5,42-103.4,62.4
		c-24.2,14.6-48.4,29.1-72.5,43.7c-4.1,2.5-7.6,3.7-10.5,3.7c-0.9,0-1.8-0.1-2.8-0.3c-8.8-2.1-9.8-10.5-9.8-14.1V143.7
		C193.5,137.2,198.6,133,204.6,133 M204.6,117c-13.4,0-28.6,14.1-28.6,27.1v220.4c0,15,8.7,26.5,22.1,29.6c2.2,0.5,4.3,0.8,6.4,0.8
		c6.6,0,12.8-2.4,18.8-6c58.7-35.4,117.3-70.7,176-106.1c8.3-5,14.4-12,16.2-21.9c2.3-12.9-4-24.3-17.5-32.5
		c-44.3-26.7-162.9-98.8-178.4-107.3C214.6,118.3,209.5,117,204.6,117L204.6,117z"/>
</g>
<g id="Ebene_3">
</g>
<g id="outlined">
</g>
</svg>
