<?xml version="1.0" encoding="utf-8"?>
<!-- Generator: Adobe Illustrator 17.1.0, SVG Export Plug-In . SVG Version: 6.00 Build 0)  -->
<!DOCTYPE svg PUBLIC "-//W3C//DTD SVG 1.1//EN" "http://www.w3.org/Graphics/SVG/1.1/DTD/svg11.dtd">
<svg version="1.1" xmlns="http://www.w3.org/2000/svg" xmlns:xlink="http://www.w3.org/1999/xlink" x="0px" y="0px" width="512px"
	 height="512px" viewBox="0 0 512 512" enable-background="new 0 0 512 512" xml:space="preserve">
<g id="EMA">
	<path d="M271.4,271c7.6-7.6,14.8-15.2,21.7-22.8c6.8-7.6,12.6-14.9,17.1-22c4.6-7.1,7.6-13.5,9.1-19.3c1.5-5.8,0.5-10.5-3-14
		c-5.1-5.1-9.6-9.7-13.7-14c-4.1-4.3-6.6-9.2-7.6-14.8c-1-5.6-0.1-12,2.6-19.4c2.8-7.3,8.5-16.3,17.1-26.9
		c8.6-11.1,16.6-17.8,24-20.1s14.2-2,20.5,0.8s12.2,7,17.5,12.5c5.3,5.6,10.3,10.6,14.8,15.2c5.6,5.6,8.4,14.6,8.4,26.9
		c0,12.4-3.2,26.9-9.5,43.6s-16,34.9-28.9,54.7c-13,19.7-29.6,39.7-49.8,60s-40.3,36.8-60.1,49.7c-19.8,12.9-38,22.6-54.8,29.2
		c-16.7,6.6-31.3,9.9-43.8,9.9s-21.4-2.8-27-8.4c-4.6-4.5-9.8-9.6-15.6-15.2c-5.8-5.6-10-11.5-12.6-17.8c-2.6-6.3-2.6-13.2-0.4-20.5
		c2.3-7.3,8.7-15.3,19.4-23.9c10.6-8.6,19.7-14.3,27-17.1c7.3-2.8,13.8-3.5,19.4-2.3c5.6,1.3,10.5,3.9,14.8,8
		c4.3,4.1,9,8.6,14.1,13.7c3.5,3.5,8.2,4.5,14.1,3c5.8-1.5,12.3-4.5,19.4-9.1s14.6-10.4,22.4-17.5
		C256.1,285.9,263.8,278.6,271.4,271z"/>
</g>
<g id="Ebene_3">
</g>
<g id="outlined">
</g>
</svg>
