<?xml version="1.0" encoding="utf-8"?>
<!-- Generator: Adobe Illustrator 17.1.0, SVG Export Plug-In . SVG Version: 6.00 Build 0)  -->
<!DOCTYPE svg PUBLIC "-//W3C//DTD SVG 1.1//EN" "http://www.w3.org/Graphics/SVG/1.1/DTD/svg11.dtd">
<svg version="1.1" xmlns="http://www.w3.org/2000/svg" xmlns:xlink="http://www.w3.org/1999/xlink" x="0px" y="0px" width="512px"
	 height="512px" viewBox="0 0 512 512" enable-background="new 0 0 512 512" xml:space="preserve">
<g id="EMA">
	<path d="M256.4,72.3L400,224v224h-64V320v-32h-32h-96h-32v32v128h-64V224L256.4,72.3 M80,256l0,208c0,8.9,7.1,16,16,16h96
		c8.8,0,16-7.2,16-16V320h96v144c0,8.8,7.2,16,16,16h96c8.8,0,16-7.2,16-16V256l18.1,19.4c6.1,6.5,16.3,6.7,22.7,0.5l2.3-2.2
		c6.4-6.1,6.5-16.3,0.4-22.6L266.4,36.4c-2.9-2.9-6.2-4.4-10-4.4l0,0c-3.8,0-7.1,1.5-10,4.4L36.5,252c-6.2,6.4-6,16.6,0.5,22.8
		l2.6,2.4c6.4,6.1,16.6,5.8,22.7-0.7L80,256z"/>
</g>
<g id="Ebene_3">
</g>
<g id="outlined">
</g>
</svg>
