<?xml version="1.0" encoding="utf-8"?>
<!-- Generator: Adobe Illustrator 17.1.0, SVG Export Plug-In . SVG Version: 6.00 Build 0)  -->
<!DOCTYPE svg PUBLIC "-//W3C//DTD SVG 1.1//EN" "http://www.w3.org/Graphics/SVG/1.1/DTD/svg11.dtd">
<svg version="1.1" xmlns="http://www.w3.org/2000/svg" xmlns:xlink="http://www.w3.org/1999/xlink" x="0px" y="0px" width="512px"
	 height="512px" viewBox="0 0 512 512" enable-background="new 0 0 512 512" xml:space="preserve">
<g id="EMA">
	<path d="M400,208l-64,0v16h-16v16h16v16h-16v16h16v16h-16v16h16v16h-16v16h16v32.2c0,8.7-7.1,15.8-15.8,15.8h-0.3
		c-8.7,0-15.8-7.1-15.8-15.8V336v-16h16v-16h-16v-16h16v-16h-16v-16h16v-16h-16v-16h16v-16l-57.2,0c-5,0-20.1-1.1-29.2-10.3
		l-10.2-10.2c-3.6-3.6-8.2-6.5-13.6-8.5c-5.4-2-10.7-3.1-15.7-3.1H112c-8.8,0-16,7.2-16,16v192c0,8.8,7.2,16,16,16h288
		c8.8,0,16-7.2,16-16V224C416,215.2,408.8,208,400,208z"/>
</g>
<g id="Ebene_3">
</g>
<g id="outlined">
</g>
</svg>
