<?xml version="1.0" encoding="utf-8"?>
<!-- Generator: Adobe Illustrator 17.1.0, SVG Export Plug-In . SVG Version: 6.00 Build 0)  -->
<!DOCTYPE svg PUBLIC "-//W3C//DTD SVG 1.1//EN" "http://www.w3.org/Graphics/SVG/1.1/DTD/svg11.dtd">
<svg version="1.1" xmlns="http://www.w3.org/2000/svg" xmlns:xlink="http://www.w3.org/1999/xlink" x="0px" y="0px" width="512px"
	 height="512px" viewBox="0 0 512 512" enable-background="new 0 0 512 512" xml:space="preserve">
<g id="EMA">
	<path d="M345.6,272h-67.2c-3.5,0-6.4,2.9-6.4,6.4v67.2c0,3.5-2.9,6.4-6.4,6.4h-19.2c-3.5,0-6.4-2.9-6.4-6.4v-67.2
		c0-3.5-2.9-6.4-6.4-6.4h-67.2c-3.5,0-6.4-2.9-6.4-6.4v-19.2c0-3.5,2.9-6.4,6.4-6.4h67.2c3.5,0,6.4-2.9,6.4-6.4v-67.2
		c0-3.5,2.9-6.4,6.4-6.4l19.2,0c3.5,0,6.4,2.9,6.4,6.4v67.2c0,3.5,2.9,6.4,6.4,6.4h67.2c3.5,0,6.4,2.9,6.4,6.4v19.2
		C352,269.1,349.1,272,345.6,272z"/>
</g>
<g id="Ebene_3">
</g>
<g id="outlined">
</g>
</svg>
