<?xml version="1.0" encoding="utf-8"?>
<!-- Generator: Adobe Illustrator 17.1.0, SVG Export Plug-In . SVG Version: 6.00 Build 0)  -->
<!DOCTYPE svg PUBLIC "-//W3C//DTD SVG 1.1//EN" "http://www.w3.org/Graphics/SVG/1.1/DTD/svg11.dtd">
<svg version="1.1" xmlns="http://www.w3.org/2000/svg" xmlns:xlink="http://www.w3.org/1999/xlink" x="0px" y="0px" width="512px"
	 height="512px" viewBox="0 0 512 512" enable-background="new 0 0 512 512" xml:space="preserve">
<g id="EMA">
	<path d="M248,96c21.1,0,40.9,4,59.2,11.9c18.3,7.9,34.4,18.8,48.2,32.7s24.8,30,32.7,48.2c7.9,18.3,11.9,38,11.9,59.1
		s-4,40.9-11.9,59.1c-7.9,18.3-18.8,34.4-32.7,48.2s-30,24.8-48.2,32.7c-18.3,7.9-38,11.9-59.2,11.9s-40.9-4-59.1-11.9
		c-18.3-7.9-34.4-18.8-48.2-32.7c-13.9-13.9-24.8-29.9-32.7-48.2C100,288.9,96,269.1,96,248s4-40.9,11.9-59.1
		c7.9-18.3,18.8-34.4,32.7-48.2c13.9-13.9,29.9-24.8,48.2-32.7C207.1,100,226.9,96,248,96z M248,367c16.3,0,31.7-3.1,46.3-9.3
		c14.5-6.2,27.2-14.7,38-25.5c10.8-10.8,19.3-23.5,25.5-38c6.2-14.5,9.3-30,9.3-46.3c0-16.3-3.1-31.7-9.3-46.3
		c-6.2-14.5-14.7-27.2-25.5-38c-10.8-10.8-23.5-19.3-38-25.5c-14.6-6.1-30-9.3-46.3-9.3c-16.3,0-31.7,3.1-46.3,9.3
		c-14.5,6.2-27.2,14.7-38,25.5c-10.8,10.8-19.3,23.5-25.4,38c-6.2,14.5-9.3,30-9.3,46.3c0,16.3,3.1,31.7,9.3,46.3
		c6.2,14.5,14.6,27.2,25.4,38c10.8,10.8,23.5,19.3,38,25.5C216.3,363.9,231.7,367,248,367z M262,242.8l45.6,45.2L292,304l-52-52v-92
		h22V242.8z"/>
</g>
<g id="Ebene_3">
</g>
<g id="outlined">
</g>
</svg>
