<?xml version="1.0" encoding="utf-8"?>
<!-- Generator: Adobe Illustrator 17.1.0, SVG Export Plug-In . SVG Version: 6.00 Build 0)  -->
<!DOCTYPE svg PUBLIC "-//W3C//DTD SVG 1.1//EN" "http://www.w3.org/Graphics/SVG/1.1/DTD/svg11.dtd">
<svg version="1.1" xmlns="http://www.w3.org/2000/svg" xmlns:xlink="http://www.w3.org/1999/xlink" x="0px" y="0px" width="512px"
	 height="512px" viewBox="0 0 512 512" enable-background="new 0 0 512 512" xml:space="preserve">
<g id="EMA">
	<path d="M320,208H192v-32h128V208z M320,336H192v-32h128V336z M192,240h128v32H192V240z M352,128L352,128L352,128v256H160V128H352
		 M352,96H160c-17.7,0-32,14.3-32,32v256c0,17.7,14.3,32,32,32h192c17.7,0,32-14.3,32-32V128C384,110.3,369.7,96,352,96L352,96z"/>
</g>
<g id="Ebene_3">
</g>
<g id="outlined">
</g>
</svg>
