<?xml version="1.0" encoding="utf-8"?>
<!-- Generator: Adobe Illustrator 17.1.0, SVG Export Plug-In . SVG Version: 6.00 Build 0)  -->
<!DOCTYPE svg PUBLIC "-//W3C//DTD SVG 1.1//EN" "http://www.w3.org/Graphics/SVG/1.1/DTD/svg11.dtd">
<svg version="1.1" xmlns="http://www.w3.org/2000/svg" xmlns:xlink="http://www.w3.org/1999/xlink" x="0px" y="0px" width="512px"
	 height="512px" viewBox="0 0 512 512" enable-background="new 0 0 512 512" xml:space="preserve">
<g id="EMA">
	<path d="M323.5,132.6c19,14.2,28.5,35,28.5,62.5c0,8.1-1.3,15.7-4,22.6c-2.6,7-6,13.4-9.9,19.3c-2.2,3.6-6,7.7-11.3,12.2
		c-5.3,4.5-11.3,9.5-17.9,14.9l-15.2,10.1c-3.5,3.2-6.9,6.4-9.9,9.8c-3.1,3.4-5.1,6.9-6,10.5c-1.3,3.6-2.2,8.5-2.6,14.9
		c0,0.9-0.3,1.9-1,3c-0.7,1.1-2.1,1.7-4.3,1.7h-42.4c-2.2,0-3.6-0.4-4.3-1.4c-0.7-0.9-1-1.8-1-2.7c0.4-9.9,1.1-18.2,2-25
		c0.9-6.8,3.3-12.4,7.3-16.9c3.1-4.1,7-8.1,11.6-12.2c4.6-4.1,9.4-7.9,14.2-11.5c5.3-4.1,10.8-7.9,16.6-11.5
		c4.8-3.6,8.6-7.4,11.3-11.5c2.2-3.6,4.3-7.3,6.3-11.1c2-3.8,3-8,3-12.5c0-8.5-2.9-17.3-8.6-26.3c-6.2-8.1-16.3-12.2-30.5-12.2
		c-15,0-25.4,4.9-31.1,14.6c-6.2,9.3-9.3,19.5-9.3,30.6h-55c1.3-36.5,13.9-62.6,37.7-78.4c15-9.5,33.3-14.2,54.9-14.2
		C281.4,112,305,118.9,323.5,132.6z M251.9,347.7c9.9,0,18.1,3.3,24.7,9.8c6.5,6.5,9.6,15,9.1,25.3c-0.5,10.4-4.1,18.6-10.8,24.6
		c-6.8,6.1-15.1,8.9-25,8.4c-9.9,0-18.1-3.3-24.7-9.8c-6.5-6.5-9.6-15-9.1-25.3c0.4-10.3,4.1-18.6,10.8-24.7
		C233.7,350.1,242,347.3,251.9,347.7z"/>
</g>
<g id="Ebene_3">
</g>
<g id="outlined">
</g>
</svg>
