<?xml version="1.0" encoding="utf-8"?>
<!-- Generator: Adobe Illustrator 17.1.0, SVG Export Plug-In . SVG Version: 6.00 Build 0)  -->
<!DOCTYPE svg PUBLIC "-//W3C//DTD SVG 1.1//EN" "http://www.w3.org/Graphics/SVG/1.1/DTD/svg11.dtd">
<svg version="1.1" xmlns="http://www.w3.org/2000/svg" xmlns:xlink="http://www.w3.org/1999/xlink" x="0px" y="0px" width="512px"
	 height="512px" viewBox="0 0 512 512" enable-background="new 0 0 512 512" xml:space="preserve">
<g id="EMA">
	<path d="M416,331.3c0,15.7-5.6,29-16.7,39.8l-28.8,28.6c-10.8,10.8-24.1,16.3-39.8,16.3c-15.8,0-29.2-5.6-40-16.7l-40.4-40.6
		c-10.8-10.8-16.3-24.1-16.3-39.8c0-16.1,5.8-29.7,17.3-41L234,260.7c-11.2,11.5-24.8,17.3-40.8,17.3c-15.7,0-29-5.5-40-16.5
		l-40.8-40.8c-11-11-16.5-24.3-16.5-40s5.6-29,16.7-39.8l28.8-28.6c10.8-10.8,24.1-16.3,39.8-16.3c15.8,0,29.2,5.6,40,16.7
		l40.4,40.6c10.8,10.8,16.3,24.1,16.3,39.8c0,16.1-5.8,29.7-17.3,41l17.3,17.3c11.2-11.5,24.8-17.3,40.8-17.3c15.7,0,29,5.5,40,16.5
		l40.8,40.8C410.5,302.3,416,315.6,416,331.3z M240.5,193.1c0-5.2-1.8-9.7-5.5-13.3l-40.4-40.6c-3.7-3.7-8.1-5.5-13.3-5.5
		c-5.1,0-9.5,1.8-13.3,5.3l-28.8,28.6c-3.7,3.7-5.5,8-5.5,13.1c0,5.2,1.8,9.7,5.5,13.3l40.8,40.8c3.5,3.5,8,5.3,13.3,5.3
		c5.5,0,10.2-2,14.1-6.1c-0.4-0.4-1.6-1.6-3.7-3.6c-2.1-2-3.5-3.4-4.2-4.2c-0.7-0.8-1.7-2-2.9-3.7c-1.2-1.7-2.1-3.4-2.5-5
		c-0.5-1.6-0.7-3.4-0.7-5.4c0-5.2,1.8-9.7,5.5-13.3c3.7-3.7,8.1-5.5,13.3-5.5c2,0,3.8,0.2,5.4,0.7c1.6,0.5,3.3,1.3,5,2.5
		c1.7,1.2,2.9,2.2,3.7,2.9c0.8,0.7,2.2,2.1,4.2,4.2c2,2.1,3.2,3.3,3.6,3.7C238.4,203.3,240.5,198.5,240.5,193.1z M378.4,331.3
		c0-5.2-1.8-9.7-5.5-13.3l-40.8-40.8c-3.7-3.7-8.1-5.5-13.3-5.5c-5.5,0-10.2,2.1-14.1,6.3c0.4,0.4,1.6,1.6,3.7,3.6
		c2.1,2,3.5,3.4,4.2,4.2c0.7,0.8,1.7,2,2.9,3.7c1.2,1.7,2.1,3.4,2.5,5c0.5,1.6,0.7,3.4,0.7,5.4c0,5.2-1.8,9.7-5.5,13.3
		c-3.7,3.7-8.1,5.5-13.3,5.5c-2,0-3.8-0.2-5.4-0.7c-1.6-0.5-3.3-1.3-5-2.5c-1.7-1.2-2.9-2.2-3.7-2.9c-0.8-0.7-2.2-2.1-4.2-4.2
		c-2-2.1-3.2-3.3-3.6-3.7c-4.3,4.1-6.5,8.8-6.5,14.3c0,5.2,1.8,9.7,5.5,13.3l40.4,40.6c3.5,3.5,8,5.3,13.3,5.3
		c5.2,0,9.7-1.7,13.3-5.1l28.8-28.6C376.5,340.8,378.4,336.4,378.4,331.3z"/>
</g>
<g id="Ebene_3">
</g>
<g id="outlined">
</g>
</svg>
