<?xml version="1.0" encoding="utf-8"?>
<!-- Generator: Adobe Illustrator 17.1.0, SVG Export Plug-In . SVG Version: 6.00 Build 0)  -->
<!DOCTYPE svg PUBLIC "-//W3C//DTD SVG 1.1//EN" "http://www.w3.org/Graphics/SVG/1.1/DTD/svg11.dtd">
<svg version="1.1" xmlns="http://www.w3.org/2000/svg" xmlns:xlink="http://www.w3.org/1999/xlink" x="0px" y="0px" width="512px"
	 height="512px" viewBox="0 0 512 512" enable-background="new 0 0 512 512" xml:space="preserve">
<g id="EMA">
	<path d="M470.4,41.7c4.1,4.1,7,10.5,8.8,19.3s0.7,19.3-3.1,31.6c-3.8,12.3-10.9,23.4-21.4,33.4l-91.9,92.2
		c0.6,14.6,1.9,37.6,3.9,69c2,31.3,3.8,58.7,5.3,82.1c1.5,23.4,2.2,35.7,2.2,36.9c0,8.8-2.8,16.7-8.3,23.7c-5.5,7-15,17.6-28.4,31.6
		c-5.3,4.7-10.8,7-16.6,7c-0.6,0-1.2,0-1.8,0c-6.4-0.6-11.1-4.4-14-11.4c-6.4-17-22.5-60.9-48.1-131.8l-57.8,54.5
		c0,5.9,0,17.6,0,35.1c0,17.6,0,27.5,0,29.9c0,8.8-4.1,17.9-12.3,27.2c-5.3,5.3-10.5,7.9-15.8,7.9h-0.9c-5.3,0-9.3-2.3-12.3-7
		c-0.6-0.6-7.4-11.7-20.6-33.4s-21.2-34.8-24.1-39.5c-43.2-25.8-68.3-41.6-75.3-47.4c-4.1-2.9-6.1-7-6.1-12.3c0.6-5.3,2.9-10,7-14.1
		l0.9-0.9c10.5-8.8,19.5-13.2,27.1-13.2c0.6,0,1.8,0,3.5,0c2.9,0,10.9,0,24.1,0s22.9,0,29.3,0c3.5,0,6.4,0,8.8,0l55.1-57.1
		c-70-25.8-114.4-42.2-133-49.2c-7-2.9-10.8-7.6-11.4-14.1c-0.6-6.4,1.8-12.3,7-17.6l32.4-29c6.4-5.9,13.4-8.8,21-8.8
		c0.6,0,1.2,0,1.8,0c1.2,0,13.4,0.9,36.8,2.6c23.3,1.8,50.9,3.7,82.7,5.7c31.8,2.1,54.7,3.4,68.7,4l91.9-92.2
		C401.9,40.2,420.2,32,440.7,32C454.1,32,464,35.2,470.4,41.7z M405.7,76.8L313.8,169l-9.6,8.8l-12.3-0.9c-17.5-1.2-54-3.5-109.4-7
		c-50.2-3.5-76.1-5.3-77.9-5.3h-0.9c-1.2,0-2.3,0.6-3.5,1.8c-4.1,3.5-11.1,9.7-21,18.4c46.7,17.6,86,32.2,118.1,43.9l41.1,15.8
		L207,275.3l-54.3,57.1l-8.8,7.9h-10.5c-2.9,0-6.1,0-9.6,0c-5.8,0-16.9,0-33.3,0c-9.9,0-16.6,0-20.1,0h-0.9l-0.9-0.9
		c19.3,12.3,38.8,24.6,58.6,36.9l6.1,3.5l3.5,5.3c2.9,5.3,13.7,22.8,32.4,52.7c0.6,0.6,1.8,2.6,3.5,6.1l-0.9-0.9h-0.9
		c0-3.5,0-11.7,0-24.6c0-20.5,0-33.4,0-38.7l0.9-11.4l7.9-7.9l56.9-55.3l31.5-31.6l14.9,42.2c11.7,31.6,26,70.6,42.9,116.8
		c8.8-9.4,14.9-16.4,18.4-21.1c1.2-1.2,1.8-2.6,1.8-4.4c0-1.8-1.5-26.1-4.4-72.9c-3.5-53.9-5.8-91.9-7-114.2l-0.9-12.3l8.8-8.8
		l92.8-93.1c8.2-8.2,13.3-17.3,15.3-27.2c2-10,1.9-15.5-0.4-16.7c-2.3-1.2-5.5-1.8-9.6-1.8C428.4,60.1,416.7,65.7,405.7,76.8z"/>
</g>
<g id="Ebene_3">
</g>
<g id="outlined">
</g>
</svg>
