<?xml version="1.0" encoding="utf-8"?>
<!-- Generator: Adobe Illustrator 17.1.0, SVG Export Plug-In . SVG Version: 6.00 Build 0)  -->
<!DOCTYPE svg PUBLIC "-//W3C//DTD SVG 1.1//EN" "http://www.w3.org/Graphics/SVG/1.1/DTD/svg11.dtd">
<svg version="1.1" xmlns="http://www.w3.org/2000/svg" xmlns:xlink="http://www.w3.org/1999/xlink" x="0px" y="0px" width="512px"
	 height="512px" viewBox="0 0 512 512" enable-background="new 0 0 512 512" xml:space="preserve">
<g id="EMA">
	<path d="M336,272v70.5c0,2.5-0.3,4.8-0.9,6.7c-0.6,1.9-1.9,2.9-5.7,2.9H272v-64h-32v64h-54c-4.8,0-7.6-0.9-8.6-2.9
		c-1-1.9-1.4-4.1-1.4-6.7V272h-25c-3.7,0-5.9-0.9-6.7-2.7c-0.8-1.8,0.1-4,2.7-6.6l99.5-98.7c2.7-2.6,5.8-3.9,9.5-3.9
		c3.6,0,6.8,1.3,9.4,3.9l99.5,98.7c2.7,2.6,3.6,4.8,2.7,6.6c-0.8,1.8-3.1,2.7-6.7,2.7H336z"/>
</g>
<g id="Ebene_3">
</g>
<g id="outlined">
</g>
</svg>
