<?xml version="1.0" encoding="utf-8"?>
<!-- Generator: Adobe Illustrator 17.1.0, SVG Export Plug-In . SVG Version: 6.00 Build 0)  -->
<!DOCTYPE svg PUBLIC "-//W3C//DTD SVG 1.1//EN" "http://www.w3.org/Graphics/SVG/1.1/DTD/svg11.dtd">
<svg version="1.1" xmlns="http://www.w3.org/2000/svg" xmlns:xlink="http://www.w3.org/1999/xlink" x="0px" y="0px" width="512px"
	 height="512px" viewBox="0 0 512 512" enable-background="new 0 0 512 512" xml:space="preserve">
<g id="EMA">
	<path d="M288,114.3l148.9,116.9L288,348.8V304v-16c0-8.8-7.2-16-16-16h-16c-27.8,0-49.7,0-76.3,5.5c-26,5.4-47,12.3-64.3,21.1
		c-16.8,8.6-32,18.8-45,30.3c-6.6,5.8-12.3,11.3-17.4,16.8c0.1-0.3,0.1-0.6,0.2-1c2.3-12.8,7.1-27.7,14.5-44.3
		c7.1-16,16.1-30.5,26.7-43c37.4-43,87.5-63.1,162.5-65.2l15.6-0.4c8.7-0.2,15.6-7.3,15.6-16v-15.6V114.3 M270.8,64
		c-2.3,0-4.7,0.6-7.1,1.7c-5.6,2.7-7.7,7-7.7,13v81.6c-85.2,2.4-143,26.9-185.9,76.3c-12.7,14.9-23.3,31.8-31.7,50.9
		c-8.5,19-14.1,36.3-16.8,51.7c-2.7,15.5-4.4,31.4-5,47.7c-0.6,16.4-0.8,27.7-0.5,33.9c0.3,6.2,0.7,11.5,1.4,15.6
		c1.2,7.7,5.7,11.6,13.6,11.6H32c7.3,0,11.2-4.2,11.8-12.5c0.6-3,1.2-6.2,1.8-9.8c0.6-3.6,2.7-10,6.3-19.2c3.6-9.2,8.3-18,14.1-26.3
		c5.7-8.3,14.2-17.4,25.4-27.2c11.2-9.8,24-18.4,38.5-25.9c14.5-7.4,33.2-13.5,56.2-18.3c23-4.7,42-4.8,69.8-4.8v81.5
		c0,6,2.1,10.3,7.7,13c2.2,1.1,4.4,1.6,6.5,1.6c3.3,0,6.4-1.3,9.5-3.8l194.7-153.8c3.8-2.4,5.6-7,5.6-11.7c0-4.8-1.9-8.3-5.6-10.7
		L279.7,67.1C276.8,65,273.9,64,270.8,64L270.8,64z"/>
</g>
<g id="Ebene_3">
</g>
<g id="outlined">
</g>
</svg>
