<?xml version="1.0" encoding="utf-8"?>
<!-- Generator: Adobe Illustrator 17.1.0, SVG Export Plug-In . SVG Version: 6.00 Build 0)  -->
<!DOCTYPE svg PUBLIC "-//W3C//DTD SVG 1.1//EN" "http://www.w3.org/Graphics/SVG/1.1/DTD/svg11.dtd">
<svg version="1.1" xmlns="http://www.w3.org/2000/svg" xmlns:xlink="http://www.w3.org/1999/xlink" x="0px" y="0px" width="512px"
	 height="512px" viewBox="0 0 512 512" enable-background="new 0 0 512 512" xml:space="preserve">
<g id="EMA">
	<path d="M288,279c-14.2,0-27.5-0.1-39.9,1c-12.3,1.1-23.8,4.3-34.3,8.2c-10.6,3.9-20.4,9.7-29.4,17.2c-9,7.5-17.1,17.7-24.4,30.6
		c5.4-21.3,13.6-40.5,24.6-57.4c4.8-7.2,10.3-14.3,16.8-21.2c6.5-6.9,14-13,22.5-18.4c8.5-5.3,17.8-10.6,28.7-12.9
		c12.7-2.8,35.4-2.1,35.4-2.1v-48l80,80l-80,80V279z"/>
</g>
<g id="Ebene_3">
</g>
<g id="outlined">
</g>
</svg>
