<?xml version="1.0" encoding="utf-8"?>
<!-- Generator: Adobe Illustrator 17.1.0, SVG Export Plug-In . SVG Version: 6.00 Build 0)  -->
<!DOCTYPE svg PUBLIC "-//W3C//DTD SVG 1.1//EN" "http://www.w3.org/Graphics/SVG/1.1/DTD/svg11.dtd">
<svg version="1.1" xmlns="http://www.w3.org/2000/svg" xmlns:xlink="http://www.w3.org/1999/xlink" x="0px" y="0px" width="512px"
	 height="512px" viewBox="0 0 512 512" enable-background="new 0 0 512 512" xml:space="preserve">
<g id="EMA">
	<path d="M406.5,128.5c3.2-0.9,5.8-0.6,7.6,1c1.8,1.6,2.3,3.8,1.4,6.6c0,0.9-1.3,6.7-3.8,17.3c-2.6,10.6-5.7,23.7-9.4,39.4
		c-3.7,15.6-7.6,32.6-11.8,50.8c-4.2,18.2-8.1,35.1-11.8,50.8c-3.7,15.6-6.8,29-9.4,40.1c-2.6,11-4.1,17-4.5,18
		c-0.9,3.2-2.7,5.4-5.2,6.6c-2.6,1.2-5.2,1-8-0.3C350.3,357.6,256,304,256,304s54.2-57.2,74.1-78.8c8.3-9.2,16.7-18.2,25-26.9
		c8.3-8.8,15.7-16.6,22.2-23.5c6.5-6.9,11.7-12.5,15.6-16.9c3.9-4.4,6.1-6.8,6.6-7.3c0.9-0.9,0.8-2-0.3-3.1
		c-1.2-1.1-2.2-1.3-3.1-0.4c-0.5,0.5-3.5,2.8-9,6.9c-5.6,4.1-12.9,9.4-21.9,15.9c-9,6.5-19.3,13.8-30.9,22.1
		c-11.6,8.3-23.2,16.8-34.7,25.6c-27.8,20.3-56.4,45.1-91.6,70.4l-107.8-43.5c-3.2-0.9-4.6-2.3-4.2-4.1c0.5-1.8,1.8-3.2,4.2-4.1
		c0.9-0.5,9-3.3,24.3-8.6c15.3-5.3,34-11.8,56.3-19.7c22.2-7.8,46.4-16.4,72.6-25.6c26.1-9.2,50.3-17.7,72.6-25.6
		c22.2-7.8,41-14.4,56.3-19.7C397.5,131.8,405.6,129,406.5,128.5z M208,309.5l55.5,26.5c-8.8,8.5-23,23-49.3,46
		c-4.2,3.2-6.2,2.5-6.2-2.1V309.5z"/>
</g>
<g id="Ebene_3">
</g>
<g id="outlined">
</g>
</svg>
