<?xml version="1.0" encoding="utf-8"?>
<!-- Generator: Adobe Illustrator 17.1.0, SVG Export Plug-In . SVG Version: 6.00 Build 0)  -->
<!DOCTYPE svg PUBLIC "-//W3C//DTD SVG 1.1//EN" "http://www.w3.org/Graphics/SVG/1.1/DTD/svg11.dtd">
<svg version="1.1" xmlns="http://www.w3.org/2000/svg" xmlns:xlink="http://www.w3.org/1999/xlink" x="0px" y="0px" width="512px"
	 height="512px" viewBox="0 0 512 512" enable-background="new 0 0 512 512" xml:space="preserve">
<g id="EMA">
	<g>
		<path d="M410.9,176.3c3.4,2.1,5.1,5.3,5.1,9.6v186.6c0,4.3-1.7,7.5-5.1,9.6c-2.1,1.3-3.8,1.9-5.1,1.9c-2.1,0-4-0.6-5.8-1.9
			l-69.1-43.5l-69.1,43.5c-3.8,2.1-7.5,2.1-10.9,0l-69.7-43.5L112,382.1c-3.4,2.1-7,2.1-10.9,0c-3.4-2.1-5.1-5.3-5.1-9.6V185.9
			c0-4.3,1.7-7.5,5.1-9.6l74.9-46.7c3.4-2.1,7-2.1,10.9,0l69.1,43.5l69.7-43.5c3.4-2.1,6.8-2.1,10.2,0L410.9,176.3z M170.9,158.4
			l-53.7,33.2v161.7l53.7-33.2V158.4z M245.8,191.6L192,158.4v161.7l53.7,33.2V191.6z M320.6,158.4l-54.4,33.2v161.7l54.4-33.2
			V158.4z M394.9,191.6l-53.7-33.2v161.7l53.7,33.2V191.6z"/>
	</g>
</g>
<g id="Ebene_3">
</g>
<g id="outlined">
</g>
</svg>
