<?xml version="1.0" encoding="utf-8"?>
<!-- Generator: Adobe Illustrator 17.1.0, SVG Export Plug-In . SVG Version: 6.00 Build 0)  -->
<!DOCTYPE svg PUBLIC "-//W3C//DTD SVG 1.1//EN" "http://www.w3.org/Graphics/SVG/1.1/DTD/svg11.dtd">
<svg version="1.1" xmlns="http://www.w3.org/2000/svg" xmlns:xlink="http://www.w3.org/1999/xlink" x="0px" y="0px" width="512px"
	 height="512px" viewBox="0 0 512 512" enable-background="new 0 0 512 512" xml:space="preserve">
<g id="EMA">
	<path d="M359.6,256c0,8.1,2.2,15.2,6.7,21.3c4.5,6.1,10.4,11.4,17.7,15.9c-2.4,8.1-5.9,16.5-10.4,25c-8.1-2-15.6-1.7-22.6,0.9
		c-6.9,2.7-13.2,6.8-18.9,12.5c-11,11.8-14.4,25.6-10.4,41.5c-8.1,4.5-16.7,8.1-25.6,11c-4.5-7.7-10.3-13.8-17.4-18.3
		c-7.1-4.5-14.7-6.7-22.9-6.7c-8.1,0-15.8,2.2-22.9,6.7c-7.1,4.5-12.9,10.6-17.4,18.3c-9.4-2.8-17.9-6.5-25.6-11
		c4.1-16.3,0.6-30.1-10.4-41.5c-11-11-24.8-14.4-41.5-10.4c-2-4.1-3.9-8.1-5.5-12.2c-1.6-4.1-3.3-8.3-4.9-12.8
		c7.3-4.5,13.3-10.3,18-17.4c4.7-7.1,7-14.7,7-22.9c0-8.1-2.3-15.3-7-21.6c-4.7-6.3-10.7-11.7-18-16.2c1.6-4.5,3.3-8.7,4.9-12.8
		c1.6-4.1,3.5-8.1,5.5-12.2c8.5,2,16.2,1.7,22.9-0.9c6.7-2.6,12.9-6.8,18.6-12.5c11-11,14.4-24.8,10.4-41.5
		c8.5-4.5,17.1-7.9,25.6-10.4c4.5,7.3,10.3,13.2,17.4,17.7c7.1,4.5,14.7,6.7,22.9,6.7c8.1,0,15.7-2.2,22.9-6.7
		c7.1-4.5,12.9-10.4,17.4-17.7c8.5,2.4,17.1,5.9,25.6,10.4c-4.1,15.9-0.6,29.7,10.4,41.5c5.7,5.7,12,9.9,18.9,12.5
		c6.9,2.6,14.4,2.9,22.6,0.9c4.5,8.5,7.9,16.9,10.4,25c-7.3,4.5-13.2,9.9-17.7,16.2C361.8,240.7,359.6,247.9,359.6,256z M256,311.5
		c7.7,0,14.9-1.4,21.6-4.3c6.7-2.8,12.6-6.8,17.7-11.9s9-11,11.9-17.7c2.8-6.7,4.3-13.9,4.3-21.6c0-7.7-1.4-15-4.3-21.9
		c-2.8-6.9-6.8-12.9-11.9-18c-5.1-5.1-11-9-17.7-11.9c-6.7-2.8-13.9-4.3-21.6-4.3c-7.7,0-14.9,1.4-21.6,4.3
		c-6.7,2.8-12.6,6.8-17.7,11.9c-5.1,5.1-9,11.1-11.9,18c-2.8,6.9-4.3,14.2-4.3,21.9c0,15.4,5.4,28.6,16.2,39.3
		C227.5,306.1,240.5,311.5,256,311.5z"/>
</g>
<g id="Ebene_3">
</g>
<g id="outlined">
</g>
</svg>
