<?xml version="1.0" encoding="utf-8"?>
<!-- Generator: Adobe Illustrator 17.1.0, SVG Export Plug-In . SVG Version: 6.00 Build 0)  -->
<!DOCTYPE svg PUBLIC "-//W3C//DTD SVG 1.1//EN" "http://www.w3.org/Graphics/SVG/1.1/DTD/svg11.dtd">
<svg version="1.1" xmlns="http://www.w3.org/2000/svg" xmlns:xlink="http://www.w3.org/1999/xlink" x="0px" y="0px" width="512px"
	 height="512px" viewBox="0 0 512 512" enable-background="new 0 0 512 512" xml:space="preserve">
<g id="EMA">
	<path d="M384,160v-16c0-8.8-7.2-16-16-16H80c-8.8,0-16,7.2-16,16v224c0,17.7,14.3,32,32,32h272h16h16c17.7,0,32-14.3,32-32V176
		c0-8.8-7.2-16-16-16H384z M112,368c-8.8,0-16-7.2-16-16V160h256v192c0,7.2,5,16,5,16H112z M240,288h80v-32h-80V288z M240,336h80
		v-32h-80V336z M128,192v32h192v-32H128z M128,336h80v-80h-80V336z"/>
</g>
<g id="Ebene_3">
</g>
<g id="outlined">
</g>
</svg>
