<?xml version="1.0" encoding="utf-8"?>
<!-- Generator: Adobe Illustrator 17.1.0, SVG Export Plug-In . SVG Version: 6.00 Build 0)  -->
<!DOCTYPE svg PUBLIC "-//W3C//DTD SVG 1.1//EN" "http://www.w3.org/Graphics/SVG/1.1/DTD/svg11.dtd">
<svg version="1.1" xmlns="http://www.w3.org/2000/svg" xmlns:xlink="http://www.w3.org/1999/xlink" x="0px" y="0px" width="512px"
	 height="512px" viewBox="0 0 512 512" enable-background="new 0 0 512 512" xml:space="preserve">
<g id="EMA">
	<path d="M363.5,147.8c6.1,6.1,10.6,11.8,13.5,17.1c2.8,5.2,4.7,9.6,5.6,13.1c1.3,4.4,1.9,10.5,1.5,14L208,368l-80,16l16-80l176-176
		c3.5-0.4,9.6,0.2,14,1.5c3.5,0.9,7.8,2.6,12.8,5.2C351.8,137.3,357.4,141.7,363.5,147.8z M209.3,349.9c-0.4-2.6-1.3-5.7-2.6-9.2
		c-2.2-6.1-7-13.3-14.4-21.6c-3.9-4-7.7-7.1-11.5-9.5c-3.7-2.4-7.1-4-10.2-4.9c-3.5-1.3-6.6-2-9.2-2l-7.2,7.9l-5.9,26.2
		c2.2,1.3,4.6,2.9,7.2,4.6c2.6,1.8,5.2,3.9,7.9,6.6c5.2,5.2,9.2,10.5,11.8,15.8l26.3-5.9L209.3,349.9z"/>
</g>
<g id="Ebene_3">
</g>
<g id="outlined">
</g>
</svg>
