<?xml version="1.0" encoding="utf-8"?>
<!-- Generator: Adobe Illustrator 17.1.0, SVG Export Plug-In . SVG Version: 6.00 Build 0)  -->
<!DOCTYPE svg PUBLIC "-//W3C//DTD SVG 1.1//EN" "http://www.w3.org/Graphics/SVG/1.1/DTD/svg11.dtd">
<svg version="1.1" xmlns="http://www.w3.org/2000/svg" xmlns:xlink="http://www.w3.org/1999/xlink" x="0px" y="0px" width="512px"
	 height="512px" viewBox="0 0 512 512" enable-background="new 0 0 512 512" xml:space="preserve">
<g id="EMA">
	<path d="M352,160c17.7,0,32,14.3,32,32v163.6c0,7.6-2.7,14.2-8.2,19.9c-5.5,5.7-12.2,8.5-20.2,8.5H156.4c-7.6,0-14.2-2.8-19.9-8.5
		c-5.7-5.7-8.5-12.3-8.5-19.9V192c0-17.7,14.3-32,32-32h16v32h48v-32h64v32h48v-32H352z M352,240H160v112h192V240z M212,180h-24v-52
		h24V180z M324,180h-24v-52h24V180z"/>
</g>
<g id="Ebene_3">
</g>
<g id="outlined">
</g>
</svg>
