<?xml version="1.0" encoding="utf-8"?>
<!-- Generator: Adobe Illustrator 17.1.0, SVG Export Plug-In . SVG Version: 6.00 Build 0)  -->
<!DOCTYPE svg PUBLIC "-//W3C//DTD SVG 1.1//EN" "http://www.w3.org/Graphics/SVG/1.1/DTD/svg11.dtd">
<svg version="1.1" xmlns="http://www.w3.org/2000/svg" xmlns:xlink="http://www.w3.org/1999/xlink" x="0px" y="0px" width="512px"
	 height="512px" viewBox="0 0 512 512" enable-background="new 0 0 512 512" xml:space="preserve">
<g id="EMA">
	<path d="M387.7,147.7l-71.4-71.4c-7.9-7.9-18.6-12.3-29.7-12.3H96c-17.7,0-32,14.3-32,32v320c0,17.7,14.3,32,32,32h272
		c17.7,0,32-14.3,32-32V177.4C400,166.3,395.6,155.6,387.7,147.7z M376.4,159c0.3,0.3,0.6,0.7,0.9,1H304V86.7c0,0.3,0.7,0.6,1,0.9
		L376.4,159z M384,416c0,8.8-7.2,16-16,16H96c-8.8,0-16-7.2-16-16V96c-0.1-9.7,7.1-16.6,16-16h190.6c0.5,0,1.4,0,1.4,0v96h96
		c0,0.5,0,0.9,0,1.4V416z M362.6,301.7c-5.4-5.2-17.4-7.9-35.6-8.1c-12.3-0.1-27.2,0.9-42.8,3c-7-3.9-14.2-8.2-19.8-13.3
		c-15.2-13.8-27.9-32.9-35.8-53.9c0.5-2,1-3.7,1.4-5.4c0,0,8.6-47.1,6.3-63.1c-0.3-2.2-0.5-2.8-1.1-4.5l-0.7-1.9
		c-2.3-5.2-6.9-10.7-14.1-10.4L216,144c-8,0-14.5,4-16.2,9.9c-5.2,18.6,0.2,46.3,9.9,82.3l-2.5,5.9c-7,16.4-15.7,33-23.4,47.6
		l-1,1.9c-8.1,15.3-15.4,28.4-22.1,39.4l-6.9,3.5c-0.5,0.3-12.3,6.3-15,7.9c-23.4,13.6-39,28.9-41.5,41.2c-0.8,3.9-0.2,8.9,4,11.2
		l6.6,3.2c2.9,1.4,5.9,2.1,9,2.1c16.7,0,36.1-20.1,62.8-65.3c30.8-9.7,65.9-17.8,96.7-22.3c23.4,12.8,52.3,21.7,70.4,21.7
		c3.2,0,6-0.3,8.3-0.9c3.5-0.9,6.4-2.8,8.2-5.4c3.5-5.1,4.2-12.2,3.3-19.5C366.3,306.2,364.6,303.5,362.6,301.7L362.6,301.7z
		 M115.9,386.5c3-7.9,14.8-23.5,32.2-37.3c1.1-0.9,3.8-3.3,6.3-5.6C136.1,371.8,123.9,383,115.9,386.5z M216.1,153.2
		c5.3,0,8.2,12.8,8.5,24.8s-2.7,20.5-6.3,26.7c-3-9.2-4.4-23.8-4.4-33.3C213.9,171.4,213.7,153.2,216.1,153.2L216.1,153.2z
		 M188.3,316.3c3.7-6.3,7.5-13,11.4-20.1c9.5-17.4,15.5-31,19.9-42.1c8.9,15.6,19.9,28.9,32.9,39.6c1.6,1.3,3.3,2.7,5.1,4
		C231.2,302.7,208.4,308.8,188.3,316.3L188.3,316.3z M355.8,317.9c-1.6,1-6.2,1.5-9.2,1.5c-9.6,0-21.4-4.2-38-11.1
		c6.4-0.5,12.2-0.7,17.5-0.7c9.6,0,12.4,0,21.8,2.3S357.4,316.9,355.8,317.9L355.8,317.9z"/>
</g>
<g id="Ebene_3">
</g>
<g id="outlined">
</g>
</svg>
