<?xml version="1.0" encoding="utf-8"?>
<!-- Generator: Adobe Illustrator 17.1.0, SVG Export Plug-In . SVG Version: 6.00 Build 0)  -->
<!DOCTYPE svg PUBLIC "-//W3C//DTD SVG 1.1//EN" "http://www.w3.org/Graphics/SVG/1.1/DTD/svg11.dtd">
<svg version="1.1" xmlns="http://www.w3.org/2000/svg" xmlns:xlink="http://www.w3.org/1999/xlink" x="0px" y="0px" width="512px"
	 height="512px" viewBox="0 0 512 512" enable-background="new 0 0 512 512" xml:space="preserve">
<g id="EMA">
	<path d="M141.8,256c-6.4,0-17.2-5.3-18.1-6.2l-40.3-28.5c-2.2-1.4-3.4-3.2-3.4-5.6c0-2.3,1.1-4.2,3.4-5.6l40.3-28.5
		c5-3.5,9.7-5.7,13.4-5.7c1.8,0,70.9,0,70.9,0v-58c0-3.3,2.7-6,6-6h20c3.3,0,6,2.7,6,6v291.3c0,4.5-2.5,6.7-7.4,6.7h-17.1
		c-5,0-7.4-2.2-7.4-6.7V256L141.8,256z M412.7,178.1c2.2,1.4,3.3,3.3,3.3,5.6c0,2.3-1.1,4.2-3.3,5.6L373,217.8
		c-1.3,0.9-2.7,1.7-4,2.4s-2.9,1.3-4.7,1.7c-3.6,1.4-6.7,2.1-9.4,2.1h-85.4L256,144h98.9c1.3,0,2.8,0,4.4,0c1.6,0,3.2,0.5,5,1.4
		c2.2,0.9,5.1,2.3,8.7,4.2L412.7,178.1z"/>
</g>
<g id="Ebene_3">
</g>
<g id="outlined">
</g>
</svg>
