<?xml version="1.0" encoding="utf-8"?>
<!-- Generator: Adobe Illustrator 17.1.0, SVG Export Plug-In . SVG Version: 6.00 Build 0)  -->
<!DOCTYPE svg PUBLIC "-//W3C//DTD SVG 1.1//EN" "http://www.w3.org/Graphics/SVG/1.1/DTD/svg11.dtd">
<svg version="1.1" xmlns="http://www.w3.org/2000/svg" xmlns:xlink="http://www.w3.org/1999/xlink" x="0px" y="0px" width="512px"
	 height="512px" viewBox="0 0 512 512" enable-background="new 0 0 512 512" xml:space="preserve">
<g id="EMA">
	<g>
		<path d="M212.8,128.6c47.9-5.4,81.3,25.9,76.9,79.4c-1.2,14.9-7.5,32.8-15.1,46c-7.2,12.5-23.3,24.6-19,40.5
			c2.7,10,25.2,16,33.3,19.5c20.7,8.9,49.8,22.3,57.1,43.6c1.9,5.5,3.3,18.9,0,27.3c-11.6,29.6-83.7,31.2-123.7,31.2
			c-22.2,0-49.1-0.3-73-4.7c-27.8-5.1-61.5-16-51.5-52.2c4.5-16.3,24.6-28.2,42.8-38.2c5.3-2.9,16.5-9.1,27-13.2
			c8.8-3.5,21.1-6.6,22.2-17.9c0.9-9.5-5.2-14.7-11.1-22.6c-13.4-18.1-26.1-42.9-23.8-76.3C157.1,158.1,177.9,132.5,212.8,128.6z
			 M414,325.6c-7.3-21.3-36.4-34.7-57.1-43.6c-8.1-3.5-30.6-9.4-33.3-19.5c-4.3-15.9,11.9-28,19-40.5c7.6-13.2,13.8-31,15.1-46
			c4.4-53.5-29-84.9-76.9-79.4c-15.5,1.7-28.1,7.7-37.7,16.7c16.6,3.2,31.3,10.9,42.2,22.7c16.4,17.8,23.9,42.9,21.5,72.6
			c-1.3,16.3-7.8,36.4-16.8,52.5c-2.6,4.5-5.7,8.6-8.7,12.6c-5.1,6.7-8.7,11.6-8.7,15.2c3.5,2.8,13.3,6.4,17.2,7.8
			c2.8,1,5.2,1.9,7,2.7c19.2,8.4,55.1,24.2,64.7,53.1c2,6,3.4,16.7,2.3,26.9c24.1-4.1,44.6-11.9,50.3-26.5
			C417.3,344.5,415.9,331.1,414,325.6z"/>
	</g>
</g>
<g id="Ebene_3">
</g>
<g id="outlined">
</g>
</svg>
