<?xml version="1.0" encoding="utf-8"?>
<!-- Generator: Adobe Illustrator 17.1.0, SVG Export Plug-In . SVG Version: 6.00 Build 0)  -->
<!DOCTYPE svg PUBLIC "-//W3C//DTD SVG 1.1//EN" "http://www.w3.org/Graphics/SVG/1.1/DTD/svg11.dtd">
<svg version="1.1" xmlns="http://www.w3.org/2000/svg" xmlns:xlink="http://www.w3.org/1999/xlink" x="0px" y="0px" width="512px"
	 height="512px" viewBox="0 0 512 512" enable-background="new 0 0 512 512" xml:space="preserve">
<g id="EMA">
	<path d="M284.9,160c5.5,0,10,1.8,13.5,5.3c3.5,3.5,5.4,7.6,5.6,12.2c0.2,4.6-1.6,9.2-5.6,13.6L236.7,256l61.7,64.9
		c3.9,4.4,5.8,8.9,5.6,13.6c-0.2,4.6-2.1,8.7-5.6,12.3c-3.5,3.5-8,5.3-13.5,5.3c-5.5,0-10-1.8-13.5-5.3c-1.8-1.8-6.6-6.7-14.4-14.9
		c-7.9-8.2-16.2-16.9-25-26.2c-10.5-11-21.9-23.2-34.2-36.4c-3.9-4-5.9-8.4-5.9-13.2c0-4.8,2-9.3,5.9-13.2
		c12.3-13.2,23.6-25.4,34.2-36.4c8.8-9.3,17.1-18,25-26.2c7.9-8.2,12.7-13.1,14.4-14.9C275,161.8,279.5,160,284.9,160z"/>
</g>
<g id="Ebene_3">
</g>
<g id="outlined">
</g>
</svg>
