<?xml version="1.0" encoding="utf-8"?>
<!-- Generator: Adobe Illustrator 17.1.0, SVG Export Plug-In . SVG Version: 6.00 Build 0)  -->
<!DOCTYPE svg PUBLIC "-//W3C//DTD SVG 1.1//EN" "http://www.w3.org/Graphics/SVG/1.1/DTD/svg11.dtd">
<svg version="1.1" xmlns="http://www.w3.org/2000/svg" xmlns:xlink="http://www.w3.org/1999/xlink" x="0px" y="0px" width="512px"
	 height="512px" viewBox="0 0 512 512" enable-background="new 0 0 512 512" xml:space="preserve">
<g id="EMA">
	<path d="M336,64H176c-17.7,0-32,14.3-32,32v320c0,17.7,14.3,32,32,32h160c17.7,0,32-14.3,32-32V96C368,78.3,353.7,64,336,64z
		 M278.8,424.8c-6.1,4.8-13.7,7.2-22.9,7.2c-8.5,0-16-2.4-22.4-7.2S224,414.4,224,408c0-7,3.2-12.8,9.6-17.3
		c6.4-4.5,13.8-6.7,22.4-6.7c9.2,0,16.8,2.2,22.9,6.7c6.1,4.5,9.2,10.2,9.2,17.3C288,414.4,284.9,420,278.8,424.8z M336,368H176V112
		h160V368z"/>
</g>
<g id="Ebene_3">
</g>
<g id="outlined">
</g>
</svg>
