<?xml version="1.0" encoding="utf-8"?>
<!-- Generator: Adobe Illustrator 17.1.0, SVG Export Plug-In . SVG Version: 6.00 Build 0)  -->
<!DOCTYPE svg PUBLIC "-//W3C//DTD SVG 1.1//EN" "http://www.w3.org/Graphics/SVG/1.1/DTD/svg11.dtd">
<svg version="1.1" xmlns="http://www.w3.org/2000/svg" xmlns:xlink="http://www.w3.org/1999/xlink" x="0px" y="0px" width="512px"
	 height="512px" viewBox="0 0 512 512" enable-background="new 0 0 512 512" xml:space="preserve">
<g id="EMA">
	<path d="M198,297.9c-9.9,7.6-20.9,11.4-32.7,11.4c-14.7,0-27.3-5.2-37.7-15.6c-10.4-10.4-15.6-23-15.6-37.7
		c0-15.2,5.2-27.8,15.6-38c10.4-10.2,23-15.3,37.7-15.3c12.3,0,23.2,3.6,32.7,10.7l96-55.5c0-1.4-0.1-2.8-0.3-4.3
		c-0.3-1.4-0.4-2.8-0.4-4.3c0-15.2,5.2-27.8,15.6-38.1c10.4-10.2,23-15.3,37.7-15.3c15.2,0,27.8,5.1,38,15.3
		c10.2,10.2,15.3,22.9,15.3,38.1c0,14.7-5.1,27.3-15.3,37.7c-10.2,10.4-22.9,15.6-38,15.6c-12.3,0-23-3.8-32-11.4l-96.7,55.5
		c0.5,1.9,0.7,5,0.7,9.2c0,3.8-0.2,6.6-0.7,8.5l96.7,55.5c8.5-7.1,19.2-10.7,32-10.7c15.2,0,27.8,5.1,38,15.3
		c10.2,10.2,15.3,22.9,15.3,38c0,14.7-5.1,27.3-15.3,37.7c-10.2,10.4-22.9,15.7-38,15.7c-14.7,0-27.3-5.2-37.7-15.7
		c-10.4-10.4-15.6-23-15.6-37.7c0-1.9,0.1-3.6,0.4-5c0.2-1.4,0.3-2.8,0.3-4.3L198,297.9z"/>
</g>
<g id="Ebene_3">
</g>
<g id="outlined">
</g>
</svg>
