<?xml version="1.0" encoding="utf-8"?>
<!-- Generator: Adobe Illustrator 17.1.0, SVG Export Plug-In . SVG Version: 6.00 Build 0)  -->
<!DOCTYPE svg PUBLIC "-//W3C//DTD SVG 1.1//EN" "http://www.w3.org/Graphics/SVG/1.1/DTD/svg11.dtd">
<svg version="1.1" xmlns="http://www.w3.org/2000/svg" xmlns:xlink="http://www.w3.org/1999/xlink" x="0px" y="0px" width="512px"
	 height="512px" viewBox="0 0 512 512" enable-background="new 0 0 512 512" xml:space="preserve">
<g id="EMA">
	<path d="M352,300.9c0,5.5-1.8,10-5.3,13.5c-3.5,3.5-7.6,5.4-12.2,5.6c-4.6,0.2-9.2-1.6-13.6-5.6L256,252.7l-64.9,61.7
		c-4.4,3.9-8.9,5.8-13.6,5.6c-4.6-0.2-8.7-2.1-12.3-5.6c-3.5-3.5-5.3-8-5.3-13.5c0-5.5,1.8-10,5.3-13.5c1.8-1.8,6.7-6.6,14.9-14.4
		c8.2-7.9,16.9-16.2,26.2-25c11-10.5,23.2-21.9,36.4-34.2c4-3.9,8.4-5.9,13.2-5.9c4.8,0,9.3,2,13.2,5.9
		c13.2,12.3,25.4,23.6,36.4,34.2c9.3,8.8,18,17.1,26.2,25c8.2,7.9,13.1,12.7,14.9,14.4C350.2,291,352,295.5,352,300.9z"/>
</g>
<g id="Ebene_3">
</g>
<g id="outlined">
</g>
</svg>
