<?xml version="1.0" encoding="utf-8"?>
<!-- Generator: Adobe Illustrator 17.1.0, SVG Export Plug-In . SVG Version: 6.00 Build 0)  -->
<!DOCTYPE svg PUBLIC "-//W3C//DTD SVG 1.1//EN" "http://www.w3.org/Graphics/SVG/1.1/DTD/svg11.dtd">
<svg version="1.1" xmlns="http://www.w3.org/2000/svg" xmlns:xlink="http://www.w3.org/1999/xlink" x="0px" y="0px" width="512px"
	 height="512px" viewBox="0 0 512 512" enable-background="new 0 0 512 512" xml:space="preserve">
<g id="EMA">
	<path d="M120.7,128c6.8,0,12.5,2.3,16.8,6.7c4.3,4.5,6.5,10.2,6.5,17.3c0,6.4-2.2,12.1-6.5,16.8c-4.4,4.8-10,7.2-16.8,7.2h-1.3
		c-6.8,0-12.5-2.4-16.8-7.2C98.2,164,96,158.4,96,152c0-7,2.2-12.8,6.5-17.3c4.4-4.4,10-6.7,16.8-6.7H120.7z M120.7,224
		c6.8,0,12.5,2.3,16.8,6.7c4.3,4.5,6.5,10.2,6.5,17.3c0,6.4-2.2,12.1-6.5,16.8c-4.4,4.8-10,7.2-16.8,7.2h-1.3
		c-6.8,0-12.5-2.4-16.8-7.2C98.2,260,96,254.4,96,248c0-7,2.2-12.8,6.5-17.3c4.4-4.4,10-6.7,16.8-6.7H120.7z M120.7,320
		c6.8,0,12.5,2.3,16.8,6.7c4.3,4.5,6.5,10.2,6.5,17.3c0,6.4-2.2,12.1-6.5,16.8c-4.4,4.8-10,7.2-16.8,7.2h-1.3
		c-6.8,0-12.5-2.4-16.8-7.2C98.2,356,96,350.4,96,344c0-7,2.2-12.8,6.5-17.3c4.4-4.4,10-6.7,16.8-6.7H120.7z M376.2,176H199.8
		c-13.1,0-23.8-10.6-23.8-23.8v-0.5c0-13.1,10.6-23.8,23.8-23.8h176.5c13.1,0,23.8,10.6,23.8,23.8v0.5
		C400,165.4,389.4,176,376.2,176z M376.2,272H199.8c-13.1,0-23.8-10.6-23.8-23.8v-0.5c0-13.1,10.6-23.8,23.8-23.8h176.5
		c13.1,0,23.8,10.6,23.8,23.8v0.5C400,261.4,389.4,272,376.2,272z M376.2,368H199.8c-13.1,0-23.8-10.6-23.8-23.8v-0.5
		c0-13.1,10.6-23.8,23.8-23.8h176.5c13.1,0,23.8,10.6,23.8,23.8v0.5C400,357.4,389.4,368,376.2,368z"/>
</g>
<g id="Ebene_3">
</g>
<g id="outlined">
</g>
</svg>
