<?xml version="1.0" encoding="utf-8"?>
<!-- Generator: Adobe Illustrator 17.1.0, SVG Export Plug-In . SVG Version: 6.00 Build 0)  -->
<!DOCTYPE svg PUBLIC "-//W3C//DTD SVG 1.1//EN" "http://www.w3.org/Graphics/SVG/1.1/DTD/svg11.dtd">
<svg version="1.1" xmlns="http://www.w3.org/2000/svg" xmlns:xlink="http://www.w3.org/1999/xlink" x="0px" y="0px" width="512px"
	 height="512px" viewBox="0 0 512 512" enable-background="new 0 0 512 512" xml:space="preserve">
<g id="EMA">
	<path d="M448,112L448,112L448,112v224H64V112H448 M448,80H64c-17.7,0-32,14.3-32,32v224c0,17.7,14.3,32,32,32h176v32h-80
		c-8.7,0-16,7.1-16,15.8v0.3c0,8.7,7.3,15.8,16,15.8h192c8.7,0,16-7.1,16-15.8v-0.3c0-8.7-7.3-15.8-16-15.8h-80v-32h176
		c17.7,0,32-14.3,32-32V112C480,94.3,465.7,80,448,80L448,80z"/>
</g>
<g id="Ebene_3">
</g>
<g id="outlined">
</g>
</svg>
