<?xml version="1.0" encoding="utf-8"?>
<!-- Generator: Adobe Illustrator 17.1.0, SVG Export Plug-In . SVG Version: 6.00 Build 0)  -->
<!DOCTYPE svg PUBLIC "-//W3C//DTD SVG 1.1//EN" "http://www.w3.org/Graphics/SVG/1.1/DTD/svg11.dtd">
<svg version="1.1" xmlns="http://www.w3.org/2000/svg" xmlns:xlink="http://www.w3.org/1999/xlink" x="0px" y="0px" width="512px"
	 height="512px" viewBox="0 0 512 512" enable-background="new 0 0 512 512" xml:space="preserve">
<g id="EMA">
	<path d="M480,256c0,61.8-21.9,114.6-65.6,158.4S317.8,480,256,480c-61.8,0-114.6-21.9-158.4-65.6S32,317.8,32,256
		c0-61.8,21.9-114.6,65.6-158.4S194.2,32,256,32c61.8,0,114.6,21.9,158.4,65.6S480,194.2,480,256z M451,255.6
		c0-53.9-19-99.7-57-137.7C356,80,310,61,256,61s-100,19-138,56.9c-38,37.9-57,83.8-57,137.7s19,99.9,57,138.1
		c38,38.2,84,57.3,138,57.3s100-19.1,138-57.3C432,355.5,451,309.4,451,255.6z M294.1,359.9c2.6,2.6,3.9,6,3.9,10.1
		c0,4.1-1.3,7.4-3.9,10.1s-6,3.9-10.1,3.9h-56c-4.1,0-7.4-1.3-10.1-3.9s-3.9-6-3.9-10.1c0-4.1,1.3-7.4,3.9-10.1s6-3.9,10.1-3.9h14
		V244h-14c-4.1,0-7.4-1.3-10.1-3.9s-3.9-6-3.9-10.1c0-4.1,1.3-7.4,3.9-10.1s6-3.9,10.1-3.9h28c4.1,0,7.4,1.3,10.1,3.9
		s3.9,6,3.9,10.1v0.9V356h14C288.1,356,291.4,357.3,294.1,359.9z M228,156c0-7.6,2.8-14.1,8.3-19.7c5.5-5.5,12.1-8.3,19.7-8.3
		c7.6,0,14.1,2.8,19.7,8.3c5.5,5.5,8.3,12.1,8.3,19.7c0,7.6-2.8,14.2-8.3,19.7c-5.5,5.5-12.1,8.3-19.7,8.3c-7.6,0-14.2-2.8-19.7-8.3
		C230.8,170.2,228,163.6,228,156z"/>
</g>
<g id="Ebene_3">
</g>
<g id="outlined">
</g>
</svg>
