<?xml version="1.0" encoding="utf-8"?>
<!-- Generator: Adobe Illustrator 17.1.0, SVG Export Plug-In . SVG Version: 6.00 Build 0)  -->
<!DOCTYPE svg PUBLIC "-//W3C//DTD SVG 1.1//EN" "http://www.w3.org/Graphics/SVG/1.1/DTD/svg11.dtd">
<svg version="1.1" xmlns="http://www.w3.org/2000/svg" xmlns:xlink="http://www.w3.org/1999/xlink" x="0px" y="0px" width="512px"
	 height="512px" viewBox="0 0 512 512" enable-background="new 0 0 512 512" xml:space="preserve">
<g id="EMA">
	<path d="M416,208h0.2c8.7,0,15.8,7.1,15.8,15.8v0.2c0,0-16.1,160.7-16.1,161.2c-0.5,8.3-7.5,14.8-15.8,14.8H111.5
		c-8.4,0-15.4-6.4-16-14.8C95.5,384.8,80,224,80,224v-0.2c0-8.7,7.1-15.8,15.8-15.8H96H416z M400,192H112l5.3-47.7
		c0.9-4.5,3.1-8.4,6.5-11.5c3.4-3.2,7.6-4.8,12.6-4.8h57.7c5,0,10.2,1,15.7,3.1c5.4,2,10,4.9,13.6,8.5l10.2,10.2
		c9.2,9.2,24.2,10.3,29.2,10.3h113.6c5,0,9.4,1.4,13.2,4.1c3.9,2.7,6.2,5.9,7.1,9.5L400,192z"/>
</g>
<g id="Ebene_3">
</g>
<g id="outlined">
</g>
</svg>
