<?xml version="1.0" encoding="utf-8"?>
<!-- Generator: Adobe Illustrator 17.1.0, SVG Export Plug-In . SVG Version: 6.00 Build 0)  -->
<!DOCTYPE svg PUBLIC "-//W3C//DTD SVG 1.1//EN" "http://www.w3.org/Graphics/SVG/1.1/DTD/svg11.dtd">
<svg version="1.1" xmlns="http://www.w3.org/2000/svg" xmlns:xlink="http://www.w3.org/1999/xlink" x="0px" y="0px" width="512px"
	 height="512px" viewBox="0 0 512 512" enable-background="new 0 0 512 512" xml:space="preserve">
<g id="EMA">
	<path d="M308.2,276.6c0.1-0.1,0.2-0.3,0.3-0.5c7.6-13.1,11.4-27.5,11.4-42.9c0-12-2.4-23.4-7.3-34.2c-4.8-10.8-11.4-20.3-19.6-28.3
		c-8.2-8-17.7-14.5-28.6-19.3c-10.8-4.9-22.2-7.3-34.2-7.3c-12,0-23.2,2.3-33.6,6.7c-10.5,4.5-19.6,10.6-27.4,18.5
		c-7.8,7.8-14,17.1-18.5,27.7c-4.5,10.6-6.7,22-6.7,33.9c0,12,2.4,23.4,7.3,34.2c4.9,10.8,11.3,20.3,19.3,28.3
		c8,8,17.4,14.5,28.3,19.3c10.8,4.9,22.2,7.3,34.2,7.3c7.8,0,15.5-1,23-3.1c7.4-2,14.2-4.9,20.5-8.6l55.3,55.7c2.6,2.7,5.7,4,9.3,4
		c3.6,0,6.8-1.3,9.8-4l13.9-14c4.5-5.3,4.2-12.2-1.4-18.6L308.2,276.6z M232,294c-34.2,0-62-27.8-62-62s27.8-62,62-62s62,27.8,62,62
		S266.2,294,232,294z"/>
</g>
<g id="Ebene_3">
</g>
<g id="outlined">
</g>
</svg>
