<?xml version="1.0" encoding="utf-8"?>
<!-- Generator: Adobe Illustrator 17.1.0, SVG Export Plug-In . SVG Version: 6.00 Build 0)  -->
<!DOCTYPE svg PUBLIC "-//W3C//DTD SVG 1.1//EN" "http://www.w3.org/Graphics/SVG/1.1/DTD/svg11.dtd">
<svg version="1.1" xmlns="http://www.w3.org/2000/svg" xmlns:xlink="http://www.w3.org/1999/xlink" x="0px" y="0px" width="512px"
	 height="512px" viewBox="0 0 512 512" enable-background="new 0 0 512 512" xml:space="preserve">
<g id="EMA">
	<g>
		<path d="M256,80c15.5,0,30,2.9,43.5,8.8c13.4,5.9,25.2,13.8,35.4,23.8c10.1,10,18.2,21.6,24.2,34.8c5.9,13.2,9,27.4,9,42.7
			c0,26.4-6,53.7-17.9,81.8c-12,28.2-24.8,54.3-38.5,78.3c-16.1,28.2-34.6,55.4-55.6,81.8c-21.5-26.4-40.3-53.7-56.4-81.8
			c-13.8-24-26.5-50.2-38.1-78.3C149.8,243.7,144,216.4,144,190c0-15.3,3-29.5,9-42.7c6-13.2,14-24.8,24.2-34.8
			c10.1-10,21.9-17.9,35.4-23.8C226,82.9,240.5,80,256,80z M255.5,256c17.7,0,32.9-6.3,45.5-19c12.6-12.6,19-27.8,19-45.5
			c0-17.7-6.3-32.7-19-45c-12.7-12.3-27.8-18.5-45.5-18.5c-17.7,0-32.7,6.2-45,18.5c-12.3,12.3-18.5,27.3-18.5,45
			c0,17.7,6.1,32.9,18.5,45.5C222.8,249.7,237.8,256,255.5,256z"/>
	</g>
</g>
<g id="Ebene_3">
</g>
<g id="outlined">
</g>
</svg>
