<?xml version="1.0" encoding="utf-8"?>
<!-- Generator: Adobe Illustrator 17.1.0, SVG Export Plug-In . SVG Version: 6.00 Build 0)  -->
<!DOCTYPE svg PUBLIC "-//W3C//DTD SVG 1.1//EN" "http://www.w3.org/Graphics/SVG/1.1/DTD/svg11.dtd">
<svg version="1.1" xmlns="http://www.w3.org/2000/svg" xmlns:xlink="http://www.w3.org/1999/xlink" x="0px" y="0px" width="512px"
	 height="512px" viewBox="0 0 512 512" enable-background="new 0 0 512 512" xml:space="preserve">
<g id="EMA">
	<g>
		<path d="M166.7,400L128,208h39.4c0,0,19.3,126.8,22,146.1h0.5c2.7-20.8,24.4-146.1,24.4-146.1h39.2c0,0,19.3,123.9,21.8,145.3h0.5
			c2.4-21.4,22.7-145.3,22.7-145.3H336l-42.1,192H256c0,0-21.6-119.9-23.5-141.9H232c-2.9,21.7-24,141.9-24,141.9H166.7z"/>
	</g>
	<path d="M387.7,147.7l-71.4-71.4c-7.9-7.9-18.6-12.3-29.7-12.3H96c-17.7,0-32,14.3-32,32v320c0,17.7,14.3,32,32,32h272
		c17.7,0,32-14.3,32-32V177.4C400,166.3,395.6,155.6,387.7,147.7z M376.4,159c0.3,0.3,0.6,0.7,0.9,1H304V86.7c0,0.3,0.7,0.6,1,0.9
		L376.4,159z M384,416c0,8.8-7.2,16-16,16H96c-8.8,0-16-7.2-16-16V96c-0.1-9.7,7.1-16.6,16-16h190.6c0.5,0,1.4,0,1.4,0v96h96
		c0,0.5,0,0.9,0,1.4V416z"/>
</g>
<g id="Ebene_3">
</g>
<g id="outlined">
</g>
</svg>
